<svg width="184" height="62" fill="none" xmlns="http://www.w3.org/2000/svg"><path d="M164.514 60.943c0-.254.649-.621 1.779-.932.96-.282 2.287-.763 2.965-1.045 1.327-.537 1.469-1.045.819-2.937-.226-.621-.96-5.196-1.638-10.167l-1.243-9.065-3.247-.197c-2.768-.142-7.484.113-7.738.423-.48.65-1.836 5.394-2.288 8.02-.056.311-.197 1.017-.282 1.582-.226 1.214.113 1.61 2.909 3.445 1.779 1.186 2.316 2.034 1.129 1.751-.367-.056-2.456-.395-4.659-.706-2.881-.452-4.265-.536-4.942-.339-.509.141-4.858 1.554-9.659 3.135-4.829 1.553-8.867 2.852-9.008 2.852-.17 0-.057-.254.226-.564.282-.311.649-.565.819-.565.169 0 1.609-.65 3.191-1.412 2.146-1.045 2.937-1.582 3.05-2.062.085-.339 0-7.342-.17-15.589-.197-8.218-.367-18.243-.367-22.225 0-4.01-.084-7.286-.197-7.286-.085 0-.735.254-1.441.565-1.045.452-1.44.508-2.315.254-.593-.17-1.187-.198-1.299-.056-.481.48-8.19 31.657-8.19 33.04 0 1.978.649 3.898 1.581 4.717 1.215 1.073 4.829 3.558 5.168 3.558.17 0 .311.255.311.537 0 .48-.395.367-3.587-.96-2.005-.82-5.93-2.429-8.754-3.559-2.852-1.157-5.168-2.174-5.168-2.259 0-.452.932-.395 3.756.226 2.174.509 3.163.622 3.417.396 1.214-1.017 1.892-3.53 5.111-19.373 1.949-9.659 3.248-16.662 3.248-17.65V4.828l-2.4-1.158c-1.328-.621-2.909-1.299-3.53-1.468-1.13-.367-1.554-1.073-.65-1.073.254 0 3.276.762 6.693 1.722 7.258 2.005 5.789 2.09 14.374-.847C145.508.904 148.191 0 148.275 0c.085 0 .142.17.142.367-.029.17-.622.621-1.384.96-2.316 1.102-5.422 3.446-5.818 4.406-.339.79-.113 3.36 1.723 20.813 1.13 10.957 2.09 19.938 2.09 19.966 0 .028.395.508.875 1.073.96 1.073 1.582 1.215 3.389.678.876-.282 1.158-.537 1.61-1.638.988-2.344 3.219-9.376 3.05-9.574-.113-.084-.735-.028-1.384.142-1.384.367-1.469.339-1.045-.452.226-.452.565-.593 1.553-.593h1.243l.452-1.469c.226-.819 2.202-7.71 4.377-15.334 3.925-13.81 3.925-13.838 4.999-14.742.593-.508 1.186-.875 1.355-.819.367.085-.311-2.654 6.637 26.574.677 2.853 3.981 16.606 5.111 21.407 1.214 4.97 1.469 5.252 5.281 5.704.96.142 1.469.34 1.469.593 0 .509.141.48-9.461 1.808-4.49.65-8.613 1.214-9.093 1.327-.706.113-.932.057-.932-.254zm-.706-25.219c2.88-.339 3.247-.452 3.247-.903 0-.396-.339-.424-2.88-.255-6.976.48-7.427.537-7.682 1.186-.169.424.113.452 2.853.311 1.694-.113 3.699-.254 4.462-.339zm2.682-2.485c0-.198-.818-4.942-1.835-10.534a1333.204 1333.204 0 01-1.864-10.42c0-.142-.367 1.044-.819 2.682-1.186 4.519-4.801 18.385-4.801 18.526 0 .057 2.09.113 4.66.113 3.643 0 4.659-.085 4.659-.367zM96.313 49.788c-1.158-.141-17.058-2.88-17.848-3.05-.565-.141-.593-.226-.31-.876l.338-.734 3.276.198c5.111.367 4.857.395 5.196-.565.198-.565.282-5.874.254-16.549-.056-14.515-.084-15.9-.621-18.497-.621-3.05-1.017-3.615-2.711-3.954-.96-.17-2.852-1.807-2.09-1.807.763 0 27.422 3.078 27.506 3.163.226.226.961 9.404.763 9.601-.113.113-.763.283-1.44.396l-1.271.197.678-.932c.988-1.383 1.129-3.869.282-5.224-.932-1.497-1.525-1.75-4.801-2.146-3.05-.34-10.647-.17-11.07.254-.141.141-.34 1.242-.508 2.485-.311 2.683-.96 13.358-.82 13.499.057.056 2.4.254 5.197.395 6.382.396 8.924 1.073 11.098 3.022 2.09 1.864 2.74 3.558 2.711 6.919-.028 2.231-.141 2.993-.762 4.462-1.44 3.474-6.157 9.122-8.049 9.658-1.016.283-3.276.31-4.998.085zm1.101-2.627c1.356-1.524 4.349-7.68 4.66-9.601.31-1.836-.113-6.072-.65-6.92-.593-.903-5.14-3.473-6.806-3.84-.819-.17-1.948-.254-2.485-.141l-.988.198-.17 3.445c-.31 6.58-.423 16.464-.197 16.831.254.396 2.965 1.073 4.575 1.13.875.028 1.186-.141 2.061-1.102zm-45.297.283c-1.017-.113-2.118-.283-2.43-.395-.536-.17-3.5-3.276-3.5-3.643 0-.226 7.765 3.812 7.85 4.066.056.141.056.226 0 .226-.028-.028-.904-.141-1.92-.254zm-34.171-1.892c-6.241-1.666-7.286-1.864-10.59-2.033l-3.672-.17 1.13-.536c.819-.368 2.033-.565 4.293-.678 2.23-.085 3.19-.226 3.304-.48.593-1.553-1.92-31.432-2.711-32.223-.311-.31-.848-.282-3.05.057-3.079.452-5.366.282-6.298-.48-.621-.509-.593-.509 1.525-.537 1.75 0 3.558-.367 9.743-2.005 7.201-1.92 7.766-2.033 10.562-2.005 3.276.028 8.359.904 9.743 1.694 1.44.848 1.92 2.231 1.92 5.677 0 3.53-.254 4.095-3.078 6.919L29.1 20.39l-1.497-.142c-2.965-.31-3.191.424-.254.904 1.13.17 2.541.621 3.163.96.621.367 1.948.876 2.937 1.186 2.259.678 4.208 2.344 5.14 4.434.62 1.384.677 1.836.65 6.015-.03 3.672-.142 4.942-.65 6.75-.707 2.598-1.695 4.857-2.514 5.733-.847.875-2.965 1.214-7.342 1.186-3.841 0-3.926-.028-10.788-1.864zm8.924.056c1.355-.395 2.824-1.61 3.417-2.824.819-1.638.621-5.676-.593-12.284-.847-4.547-1.695-6.721-2.909-7.427-.847-.48-1.327-.509-5.704-.311l-4.773.197-.17 8.077c-.113 4.434-.254 8.727-.339 9.545l-.14 1.469 1.553.989c2.23 1.44 3.643 2.117 5.337 2.57 1.92.508 2.626.508 4.32 0zm-3.502-25.303c.593-.31 1.242-.82 1.468-1.186.763-1.158 1.328-3.982 1.497-7.456.198-3.812-.056-4.885-1.214-5.422-1.017-.452-5.055-.395-5.987.085-1.582.819-1.666 1.101-1.864 6.1-.113 2.57-.254 5.591-.339 6.721l-.17 2.062 2.768-.198c1.836-.113 3.163-.367 3.84-.706zm34.198 26.151c-3.276-.904-7.625-3.107-9.884-5.056-2.965-2.57-4.066-8.218-3.05-15.39.904-6.129 2.457-11.07 4.01-12.878.622-.706 5.281-4.632 6.496-5.45 3.021-2.09 6.156-2.966 8.472-2.345 1.75.48 5.196 2.91 7.145 5.055 4.066 4.462 5.563 7.71 6.354 13.782 1.299 9.997-.367 13.979-8.275 19.599-3.473 2.485-4.998 3.078-7.681 3.078-1.158 0-2.768-.198-3.587-.395zm7.343-1.639c2.203-.931 4.18-4.603 5.111-9.488.594-3.05.565-5.027-.084-9.489-.31-2.005-.622-4.688-.735-5.93-.734-8.699-3.897-13.584-8.5-13.048-3.36.367-10.42 5.649-11.86 8.84-.34.762-.481 1.835-.481 3.501 0 2.09.198 3.107 1.581 7.823 2.938 10.025 5.084 15.137 7.089 17.029 1.13 1.045 6.043 1.525 7.879.763z" fill="#FCFCFD"/><path d="M64.797 14.064c-1.299-2.485-2.57-5.535-2.457-5.903.057-.14.847.509 1.808 1.384l1.722 1.61.198 2.513c.113 1.356.141 2.542.085 2.599-.057.084-.678-.932-1.356-2.203z" fill="#FCFCFD"/></svg>