<svg width="182" height="110" fill="none" xmlns="http://www.w3.org/2000/svg"><path d="M99.987 109.312c-16.195-1.675-31.341-8.196-44.726-19.295-1.472-1.228-4.417-3.975-6.536-6.119l-3.837-3.885-6.982 4.578a9892.328 9892.328 0 01-15.102 9.87c-4.484 2.926-11.355 7.437-15.281 10.005-3.926 2.568-7.25 4.735-7.406 4.779-.29.112-.513.804 5.51-17.687 10.105-31.086 9.525-29.054 9.302-32.604-.112-1.72-1.026-5.204-6.58-25.012-3.548-12.64-6.425-23.047-6.38-23.07.022-.044 9.881 6.946 21.883 15.521l21.839 15.61 2.766-2.635c8.276-7.883 17.467-14.047 26.97-18.11 1.383-.581 1.428-.604 1.294-1.319-.067-.401-.937-4.912-1.919-10.004C73.798 4.82 72.995.6 72.995.533c0-.067 1.629-.246 3.637-.402C86.268-.584 97.02 1.65 105.92 6.228c4.663 2.412 8.165 4.846 12.046 8.396 1.584 1.43 1.629 1.474 3.703 1.876 20.1 4.02 38.949 16.593 52.691 35.173 3.524 4.78 7.874 11.814 7.629 12.417-.201.514-4.038 6.23-5.711 8.508-5.8 7.839-14.098 16.057-21.727 21.506-5.421 3.864-11.935 7.414-18.359 10.05l-2.7 1.094-1.45-1.809c-5.933-7.526-11.243-18.134-13.518-27-1.271-4.98-1.472-6.543-1.472-12.35 0-4.644.067-5.716.513-8.039.29-1.473.602-2.769.691-2.858.157-.156 7.942 1.652 8.187 1.92.067.067-.044.85-.223 1.765-2.186 10.607.536 21.952 8.41 35.083.87 1.43 1.718 2.613 1.852 2.613.446 0 6.112-2.97 8.499-4.466 7.071-4.422 14.299-10.63 19.876-17.084 1.874-2.189 5.8-7.28 6.826-8.844.379-.58.357-.603-1.785-3.796-12.536-18.692-30.182-31.287-49.567-35.352-5.041-1.05-8.008-1.34-14.098-1.34-6.068 0-8.7.246-13.943 1.318-11.666 2.367-23.2 8.062-33.17 16.37-3.726 3.103-8.723 8.262-13.43 13.89-2.41 2.88-4.484 5.27-4.573 5.315-.2.067-6.335-5.003-6.447-5.338-.045-.111 1.138-1.63 2.61-3.372 1.495-1.764 2.7-3.238 2.7-3.305-.023-.067-1.027-.804-2.254-1.675a73.237 73.237 0 01-2.61-1.853c-.223-.157-2.23-1.608-4.506-3.216a5155.98 5155.98 0 00-8.9-6.365c-2.61-1.898-4.797-3.394-4.841-3.372-.023.045 1.137 4.355 2.61 9.558 4.305 15.32 4.461 16.169 3.993 20.724-.335 3.194-.447 3.618-4.484 15.99-1.852 5.628-3.324 10.273-3.28 10.295.045.045 2.276-1.362 4.975-3.126C29.206 79.946 36.3 75.345 40.16 72.822c5.42-3.529 8.343-5.985 15.102-12.752 6.313-6.342 8.9-8.575 13.095-11.345 10.796-7.101 23.244-11.635 36.316-13.22 3.212-.38 12.448-.58 16.998-.357l2.633.134-2.699 3.461c-3.793 4.868-5.02 7.124-6.67 12.06-3.19 9.513-2.99 20.031.557 30.706 2.432 7.302 5.51 13.109 11.333 21.305 1.338 1.898 2.476 3.573 2.52 3.707.112.268-7.54 1.876-11.845 2.479-2.855.424-14.5.603-17.511.312zm14.21-8.665l.714-.156-.691-1.117c-2.343-3.751-5.399-10.406-6.983-15.185-2.186-6.655-3.1-12.238-3.1-19.206 0-5.092.245-7.615 1.227-12.06.357-1.674 2.141-7.257 2.743-8.642.246-.513-.223-.513-4.104.045-9.637 1.362-18.783 4.489-26.903 9.156-6.068 3.484-8.254 5.248-16.04 12.953-3.68 3.64-7.16 6.99-7.74 7.459-.602.469-1.07.982-1.07 1.139 0 .335 5.978 6.208 8.476 8.285 12.314 10.317 26.033 16.124 41.381 17.508 2.409.201 10.93.089 12.09-.179zM88.544 16.992c4.439-1.028 10.06-1.81 14.232-1.988l1.338-.044-1.628-.85c-4.35-2.255-9.815-4.041-14.656-4.823-3.77-.58-4.55-.647-4.44-.357.045.111.447 2.166.893 4.533.78 4.11.848 4.333 1.294 4.221.245-.067 1.606-.38 2.967-.692z" fill="#FCFCFD"/><path d="M142.62 69.662c-1.874-.496-3.386-1.399-5.012-3.022-2.506-2.458-3.476-4.984-3.318-8.547.18-3.609 1.49-6.225 4.244-8.457 4.605-3.699 11.062-3.338 15.306.902 6.186 6.179 3.387 16.62-5.124 19.124-1.513.45-4.448.45-6.096 0zm4.651-8.796c2.077-1.307 1.174-4.713-1.31-4.983-2.551-.249-4.086 2.773-2.28 4.51 1.129 1.082 2.371 1.24 3.59.474z" fill="#FCFCFD"/></svg>