<svg width="40" height="40" fill="none" xmlns="http://www.w3.org/2000/svg"><path d="M20 11.989A8 8 0 0011.99 20 8 8 0 0020 28.012 8 8 0 0028.012 20 8 8 0 0020 11.99zm0 13.218A5.218 5.218 0 0114.793 20 5.218 5.218 0 0120 14.793 5.218 5.218 0 0125.207 20 5.218 5.218 0 0120 25.207zm8.34-15.414a1.869 1.869 0 00-1.871 1.871c0 1.036.836 1.871 1.871 1.871a1.866 1.866 0 001.871-1.87 1.87 1.87 0 00-1.871-1.872zM35.617 20c0-2.156.02-4.293-.101-6.445-.121-2.5-.692-4.719-2.52-6.547-1.832-1.832-4.047-2.398-6.547-2.52-2.156-.12-4.293-.101-6.445-.101-2.156 0-4.293-.02-6.445.102-2.5.12-4.719.69-6.547 2.52-1.832 1.831-2.399 4.046-2.52 6.546-.12 2.156-.101 4.293-.101 6.445 0 2.153-.02 4.293.101 6.446.121 2.5.692 4.718 2.52 6.546 1.832 1.833 4.047 2.399 6.547 2.52 2.156.121 4.293.102 6.445.102 2.156 0 4.293.02 6.445-.102 2.5-.121 4.72-.691 6.547-2.52 1.832-1.832 2.399-4.046 2.52-6.546.125-2.153.101-4.29.101-6.446zm-3.437 9.211a4.964 4.964 0 01-1.18 1.79c-.55.55-1.078.894-1.789 1.179-2.055.816-6.933.633-9.21.633-2.278 0-7.161.183-9.216-.63a4.964 4.964 0 01-1.789-1.179 4.998 4.998 0 01-1.18-1.789c-.812-2.058-.628-6.937-.628-9.215 0-2.277-.184-7.16.629-9.215a4.964 4.964 0 011.18-1.789 5.05 5.05 0 011.788-1.18c2.055-.812 6.938-.628 9.215-.628s7.16-.184 9.215.629a4.964 4.964 0 011.79 1.18c.55.55.894 1.078 1.179 1.788.812 2.055.629 6.938.629 9.215 0 2.278.183 7.157-.633 9.211z" fill="#FCD51E"/></svg>