<svg width="44" height="44" fill="none" xmlns="http://www.w3.org/2000/svg"><path d="M29.838 39.924H14.162c-.449 0-.865-.232-1.1-.613L4.546 25.537c-2.74-.2-4.547-2.159-4.547-5 0-3 2.016-5.017 5.017-5.017h33.966c3 0 5.017 2.016 5.017 5.017 0 2.841-1.807 4.8-4.547 5L30.94 39.311a1.293 1.293 0 01-1.1.613zm-14.955-2.588h14.234l8.504-13.757a1.294 1.294 0 011.1-.613h.262c1.566 0 2.429-.863 2.429-2.429 0-1.566-.863-2.429-2.43-2.429H5.018c-1.566 0-2.429.863-2.429 2.43 0 1.565.863 2.428 2.43 2.428.043 0 .086.002.13.006a1.29 1.29 0 011.231.607l8.504 13.757z" fill="#FCD51E"/><path d="M22.486 33.603a1.035 1.035 0 01-1.035-1.036v-8.622a1.035 1.035 0 112.07 0v8.622c0 .572-.463 1.036-1.035 1.036zm-5.299.314c-.346 0-.684-.173-.88-.488l-5.379-8.634a1.035 1.035 0 111.757-1.095l5.38 8.634a1.035 1.035 0 01-.878 1.583zm9.623-.019a1.016 1.016 0 01-.861-1.554l5.378-8.634a1.016 1.016 0 011.725 1.074l-5.378 8.635c-.193.31-.525.48-.864.48zM18.5 17.77c-.715 0-1.294-.58-1.294-1.295V9.433c0-3.054 2.158-5.357 5.02-5.357h.52c2.956 0 5.02 2.064 5.02 5.02v7.04a1.294 1.294 0 01-2.588 0v-7.04c0-1.523-.91-2.432-2.431-2.432h-.521c-1.671 0-2.432 1.436-2.432 2.77v7.04c0 .715-.579 1.295-1.294 1.295z" fill="#FCD51E"/></svg>