<svg width="24" height="24" fill="none" xmlns="http://www.w3.org/2000/svg"><path d="M20.309 24H3.99a.706.706 0 01-.706-.706V5.654a.706.706 0 111.412 0v16.934h14.907V5.654a.706.706 0 011.412 0v17.64c0 .39-.316.706-.706.706z" fill="#151511"/><path d="M22.854 5.885H1.145a.706.706 0 110-1.412h21.709a.706.706 0 010 1.412z" fill="#151511"/><path d="M14.46 5.648a.706.706 0 01-.706-.706V2.94a1.53 1.53 0 00-1.527-1.528h-.155a1.53 1.53 0 00-1.527 1.528v2.002a.706.706 0 11-1.412 0V2.94A2.943 2.943 0 0112.073 0h.153a2.943 2.943 0 012.94 2.94v2.002c0 .39-.316.706-.706.706zM8.107 19.202a.565.565 0 01-.565-.564V9.835a.565.565 0 111.13 0v8.803a.565.565 0 01-.565.564zm8.16 0a.565.565 0 01-.565-.564V9.835a.565.565 0 011.13 0v8.803a.565.565 0 01-.565.564zm-4.118 0a.565.565 0 01-.565-.564V9.835a.565.565 0 011.13 0v8.803a.565.565 0 01-.565.564z" fill="#151511"/></svg>