<svg width="40" height="40" fill="none" xmlns="http://www.w3.org/2000/svg"><path d="M32.5 36.25h-.212C7.725 34.837 4.238 14.113 3.75 7.788A3.75 3.75 0 017.2 3.75h6.888a2.5 2.5 0 012.325 1.575l1.9 4.675a2.5 2.5 0 01-.55 2.7L15.1 15.388a11.712 11.712 0 009.475 9.5l2.713-2.688A2.5 2.5 0 0130 21.688l4.713 1.887A2.5 2.5 0 0136.25 25.9v6.6a3.75 3.75 0 01-3.75 3.75zm-25-30A1.25 1.25 0 006.25 7.5v.1c.575 7.4 4.263 24.9 26.175 26.15a1.251 1.251 0 001.325-1.175V25.9l-4.712-1.887-3.588 3.562-.6-.075C13.975 26.137 12.5 15.262 12.5 15.15l-.075-.6 3.55-3.588L14.1 6.25H7.5z" fill="#FCD51E"/></svg>