<svg width="44" height="44" fill="none" xmlns="http://www.w3.org/2000/svg"><path d="M15.758 27.107H14.48c-3.7 0-6.711-3.01-6.711-6.711v-7.308c0-3.7 3.01-6.71 6.71-6.71h1.28c3.7 0 6.71 3.01 6.71 6.71v7.308c0 3.7-3.01 6.711-6.71 6.711zM14.48 8.473a4.621 4.621 0 00-4.616 4.615v7.308a4.621 4.621 0 004.616 4.616h1.278a4.621 4.621 0 004.616-4.616v-7.308a4.62 4.62 0 00-4.616-4.615H14.48z" fill="#FCD51E"/><path d="M15.119 37.623H1.049c-.58 0-1.048-.47-1.048-1.048v-2.506c-.092-2.736 6.81-4.83 11.485-5.93v-1.941a1.048 1.048 0 012.095 0v2.776c0 .49-.34.915-.819 1.022-5.345 1.198-10.332 3.11-10.672 4.095l.003 1.436H15.12a1.048 1.048 0 010 2.096z" fill="#FCD51E"/><path d="M29.189 37.623h-14.07a1.048 1.048 0 010-2.095H28.14v-1.459c-.334-.963-5.321-2.877-10.665-4.073a1.048 1.048 0 01.457-2.045c4.637 1.038 12.4 3.218 12.303 6.153v2.471c0 .578-.468 1.048-1.047 1.048zm13.763-26.516h-13.62a1.048 1.048 0 010-2.095h13.62a1.048 1.048 0 010 2.095zm0 6.683h-13.62a1.048 1.048 0 010-2.095h13.62a1.048 1.048 0 010 2.095zm0 6.682h-13.62a1.048 1.048 0 010-2.095h13.62a1.048 1.048 0 010 2.095z" fill="#FCD51E"/></svg>