<svg width="40" height="40" fill="none" xmlns="http://www.w3.org/2000/svg"><path d="M35.965 11.425c.233-.775 0-1.344-1.104-1.344h-3.655c-.93 0-1.355.492-1.588 1.032 0 0-1.858 4.532-4.492 7.47-.85.855-1.238 1.125-1.701 1.125-.232 0-.569-.27-.569-1.045v-7.238c0-.93-.268-1.344-1.043-1.344H16.07c-.58 0-.93.43-.93.84 0 .88 1.316 1.084 1.451 3.564v5.38c0 1.178-.211 1.393-.678 1.393-1.238 0-4.252-4.548-6.04-9.755-.348-1.011-.7-1.42-1.633-1.42H4.586c-1.045 0-1.253.492-1.253 1.032 0 .97 1.238 5.77 5.768 12.118 3.02 4.335 7.272 6.685 11.145 6.685 2.322 0 2.609-.521 2.609-1.421V25.22c0-1.043.221-1.253.956-1.253.54 0 1.47.273 3.639 2.361 2.476 2.477 2.886 3.588 4.278 3.588h3.653c1.044 0 1.565-.521 1.265-1.551-.328-1.025-1.511-2.517-3.081-4.282-.854-1.006-2.129-2.09-2.517-2.631-.542-.699-.385-1.007 0-1.627.002.002 4.453-6.268 4.917-8.4z" fill="#FCD51E"/></svg>