<svg width="40" height="40" fill="none" xmlns="http://www.w3.org/2000/svg"><path d="M37.5 19.89c0-.085 0-.183-.004-.296-.004-.317-.012-.672-.02-1.051a58.909 58.909 0 00-.171-3.2c-.117-1.41-.29-2.585-.524-3.468a5.45 5.45 0 00-3.84-3.848c-1.105-.297-3.27-.48-6.316-.594-1.45-.054-3-.09-4.55-.109-.544-.008-1.048-.012-1.5-.016h-1.15c-.452.004-.956.008-1.5.016-1.55.02-3.1.055-4.55.11-3.047.117-5.215.3-6.316.593a5.443 5.443 0 00-3.84 3.848c-.239.883-.406 2.059-.524 3.469a58.829 58.829 0 00-.172 3.199c-.011.379-.015.734-.02 1.05 0 .114-.003.212-.003.297v.22c0 .085 0 .183.004.296.004.317.012.672.02 1.05.03 1.09.085 2.177.171 3.2.118 1.41.29 2.586.524 3.469a5.443 5.443 0 003.84 3.848c1.101.296 3.27.48 6.316.593 1.45.055 3 .09 4.55.11.544.008 1.048.011 1.5.015h1.15c.452-.004.956-.008 1.5-.015 1.55-.02 3.1-.055 4.55-.11 3.047-.117 5.215-.3 6.316-.594a5.436 5.436 0 003.84-3.847c.239-.883.407-2.059.524-3.469.086-1.023.14-2.11.172-3.2.011-.378.015-.733.02-1.05 0-.113.003-.21.003-.297v-.219zm-2.813.204c0 .082 0 .171-.003.277-.004.305-.012.64-.02 1.004a52.892 52.892 0 01-.164 3.043c-.105 1.258-.254 2.289-.438 2.98a2.628 2.628 0 01-1.851 1.856c-.82.218-2.887.394-5.695.5a177.713 177.713 0 01-5.957.12H19.44l-1.476-.01a178.18 178.18 0 01-4.48-.11c-2.81-.11-4.88-.282-5.696-.5a2.635 2.635 0 01-1.851-1.856c-.184-.691-.333-1.722-.438-2.98a56.58 56.58 0 01-.164-3.043c-.012-.363-.016-.703-.02-1.004 0-.105-.003-.2-.003-.277v-.188c0-.082 0-.172.003-.277.004-.305.012-.64.02-1.004a52.5 52.5 0 01.164-3.043c.105-1.258.254-2.29.438-2.98a2.628 2.628 0 011.851-1.856c.82-.219 2.887-.395 5.695-.5a177.254 177.254 0 015.957-.121h1.118l1.476.012c1.527.02 3.055.054 4.48.109 2.81.11 4.88.281 5.696.5.898.242 1.61.953 1.852 1.855.183.692.331 1.723.437 2.98.082.966.133 2.005.164 3.044.012.363.016.703.02 1.004 0 .105.004.199.004.277v.188zm-18.164 5.14l9.063-5.273-9.063-5.195v10.468z" fill="#FCD51E"/></svg>