<svg width="41" height="42" viewBox="0 0 41 42" fill="none" xmlns="http://www.w3.org/2000/svg">
<g clip-path="url(#clip0)">
<path d="M41 7.73157H0V34.4113H41V7.73157Z" fill="white"/>
<path d="M40.3173 30.0849H0.683594V33.7249H40.3173V30.0849Z" fill="#FCB315"/>
<path d="M40.3173 8.42889H0.683594V12.0689H40.3173V8.42889Z" fill="#0D357F"/>
<path d="M20.1576 16.0766L18.0685 26.0817H15.5417L17.631 16.0766H20.1576ZM30.788 22.537L32.1183 18.7797L32.8834 22.537H30.788ZM33.6087 26.0817H35.9449L33.9037 16.0766H31.7485C31.2626 16.0766 30.8533 16.3651 30.6721 16.81L26.8805 26.0817H29.5343L30.061 24.5874H33.3023L33.6087 26.0817ZM27.0122 22.8152C27.0232 20.1749 23.449 20.0285 23.4727 18.8488C23.4805 18.4902 23.8142 18.1083 24.5443 18.0107C24.906 17.9629 25.9045 17.9244 27.0363 18.4585L27.479 16.336C26.8708 16.1108 26.0886 15.8938 25.1154 15.8938C22.6174 15.8938 20.8601 17.253 20.8461 19.2009C20.8301 20.6414 22.1015 21.4444 23.0572 21.9241C24.0426 22.4145 24.3729 22.7291 24.3681 23.1672C24.3613 23.8384 23.5821 24.1355 22.857 24.1468C21.5858 24.167 20.8491 23.7949 20.2618 23.5145L19.8032 25.7078C20.3945 25.9851 21.4842 26.2264 22.6123 26.2388C25.2678 26.2388 27.0044 24.8954 27.0122 22.8152ZM16.5472 16.0766L12.453 26.0817H9.78235L7.76746 18.0969C7.64541 17.6059 7.53892 17.4254 7.16745 17.218C6.55986 16.8798 5.55668 16.5637 4.6748 16.3669L4.73441 16.0766H9.0341C9.58171 16.0766 10.0745 16.4499 10.1997 17.0961L11.264 22.886L13.8926 16.0766H16.5472Z" fill="#0D357F"/>
</g>
<defs>
<clipPath id="clip0">
<rect width="41" height="42" fill="white"/>
</clipPath>
</defs>
</svg>
