<svg width="44" height="44" viewBox="0 0 44 44" fill="none" xmlns="http://www.w3.org/2000/svg">
<path fill-rule="evenodd" clip-rule="evenodd" d="M22 31.625C24.6125 29.2875 26.2625 25.85 26.2625 22C26.2625 18.15 24.6125 14.7812 22 12.375C19.7313 10.3125 16.6375 9.00623 13.3375 9.00623C6.1875 9.00623 0.34375 14.85 0.34375 22C0.34375 29.15 6.1875 34.925 13.3375 34.925C16.6375 34.9937 19.7313 33.6875 22 31.625Z" fill="#07A9E2"/>
<path fill-rule="evenodd" clip-rule="evenodd" d="M0.34375 22C0.34375 29.15 6.1875 34.925 13.3375 34.925C16.7062 34.925 19.7313 33.6875 22 31.5562C24.6125 29.2187 26.2625 25.7812 26.2625 21.9312C26.2625 18.0812 24.6125 14.7812 22 12.375C19.7313 10.3125 16.6375 9.00623 13.3375 9.00623" fill="#009DDD"/>
<path fill-rule="evenodd" clip-rule="evenodd" d="M21.9998 12.375C19.7311 10.3125 16.6373 9.00623 13.3373 9.00623C13.1311 9.00623 12.9248 9.00623 12.7186 9.00623C8.6623 11.9625 6.0498 16.7062 6.0498 22C6.0498 27.2937 8.6623 32.0375 12.6498 34.925C12.8561 34.925 13.0623 34.925 13.2686 34.925C16.6373 34.925 19.6623 33.6875 21.9311 31.5562C24.5436 29.2187 26.1936 25.7812 26.1936 21.9312C26.1936 18.0812 24.6123 14.7812 21.9998 12.375Z" fill="#0284CC"/>
<path fill-rule="evenodd" clip-rule="evenodd" d="M30.7314 9.00623C27.3627 9.00623 24.3377 10.2437 22.0002 12.375C21.5189 12.7875 21.1064 13.2687 20.6939 13.75H23.3064C23.6502 14.1625 23.9939 14.6437 24.2689 15.125H19.6627C19.3877 15.6062 19.1127 16.0187 18.9064 16.5H25.0252C25.2314 16.9812 25.4377 17.3937 25.5752 17.875H18.4252C18.2877 18.3562 18.1502 18.7687 18.0127 19.25H25.9877C26.1939 20.1437 26.2627 21.0375 26.2627 22C26.2627 23.4437 26.0564 24.8187 25.5752 26.125H18.4252C18.5627 26.6062 18.7689 27.0187 18.9752 27.5H25.0939C24.8877 27.9812 24.6127 28.4625 24.3377 28.875H19.7314C20.0064 29.3562 20.3502 29.8375 20.6939 30.25H23.3064C22.8939 30.7312 22.4814 31.2125 22.0002 31.625C24.3377 33.6875 27.3627 34.9937 30.7314 34.9937C37.8814 34.9937 43.6564 29.2187 43.6564 22.0687C43.6564 14.85 37.8814 9.00623 30.7314 9.00623Z" fill="#FF2957"/>
<path fill-rule="evenodd" clip-rule="evenodd" d="M30.7314 9.00623C27.3627 9.00623 24.3377 10.2437 22.0002 12.375C21.5189 12.7875 21.1064 13.2687 20.6939 13.75H23.3064C23.6502 14.1625 23.9939 14.6437 24.2689 15.125H19.6627C19.3877 15.6062 19.1127 16.0187 18.9064 16.5H25.0252C25.2314 16.9812 25.4377 17.3937 25.5752 17.875H18.4252C18.2877 18.3562 18.1502 18.7687 18.0127 19.25H25.9877C26.1939 20.1437 26.2627 21.0375 26.2627 22C26.2627 23.4437 26.0564 24.8187 25.5752 26.125H18.4252C18.5627 26.6062 18.7689 27.0187 18.9752 27.5H25.0939C24.8877 27.9812 24.6127 28.4625 24.3377 28.875H19.7314C20.0064 29.3562 20.3502 29.8375 20.6939 30.25H23.3064C22.8939 30.7312 22.4814 31.2125 22.0002 31.625C24.3377 33.6875 27.3627 34.9937 30.7314 34.9937C37.8814 34.9937 43.6564 29.2187 43.6564 22.0687" fill="#ED1C2E"/>
<path fill-rule="evenodd" clip-rule="evenodd" d="M22 31.625C24.6125 29.2875 26.2625 25.85 26.2625 22C26.2625 18.15 24.6125 14.7812 22 12.375V31.625Z" fill="#0466B5"/>
<path fill-rule="evenodd" clip-rule="evenodd" d="M39.1875 24.8187C39.1875 24.6125 39.3937 24.4062 39.6 24.4062C39.8062 24.4062 40.0125 24.6125 40.0125 24.8187C40.0125 25.025 39.8062 25.2313 39.6 25.2313C39.3937 25.2313 39.1875 25.025 39.1875 24.8187ZM39.6 25.1625C39.8062 25.1625 39.875 25.025 39.875 24.8187C39.875 24.6125 39.7375 24.5438 39.6 24.5438C39.3937 24.5438 39.2562 24.6812 39.2562 24.8187C39.2562 24.9562 39.4625 25.1625 39.6 25.1625ZM39.6 24.9562H39.5313V24.6125H39.6688C39.7375 24.6125 39.7375 24.6125 39.7375 24.6125L39.8063 24.6813C39.8063 24.75 39.8062 24.75 39.7375 24.75L39.8063 24.8875H39.7375L39.6688 24.75H39.6V24.9562ZM39.6 24.75C39.6687 24.75 39.6688 24.75 39.6688 24.75C39.6688 24.75 39.6688 24.75 39.6688 24.6813H39.6V24.75Z" fill="white"/>
<path fill-rule="evenodd" clip-rule="evenodd" d="M22.0002 12.375C21.5189 12.7875 21.1064 13.2687 20.6939 13.75H23.3064C23.6502 14.1625 23.9939 14.6437 24.2689 15.125H19.6627C19.3877 15.6062 19.1127 16.0187 18.9064 16.5H25.0252C25.2314 16.9812 25.4377 17.3937 25.5752 17.875H18.4252C18.2877 18.3562 18.1502 18.7687 18.0127 19.25H25.9877C26.1939 20.1437 26.2627 21.0375 26.2627 22C26.2627 23.4437 26.0564 24.8187 25.5752 26.125H18.4252C18.5627 26.6062 18.7689 27.0187 18.9752 27.5H25.0939C24.8877 27.9812 24.6127 28.4625 24.3377 28.875H19.7314C20.0064 29.3562 20.3502 29.8375 20.6939 30.25H23.3064C22.8939 30.7312 22.4814 31.2125 22.0002 31.625C24.3377 33.6875 27.3627 34.9937 30.7314 34.9937C30.9377 34.9937 31.1439 34.9937 31.3502 34.9937C35.3377 32.1062 37.9502 27.3625 37.9502 22.0687C37.9502 16.775 35.3377 12.0312 31.3502 9.14375C31.1439 9.14375 30.9377 9.14375 30.7314 9.14375C27.3627 9.00625 24.3377 10.3125 22.0002 12.375Z" fill="#D1094B"/>
<path fill-rule="evenodd" clip-rule="evenodd" d="M11.6873 25.2312H10.0373L10.9998 20.2125L8.7998 25.2312H7.35605L7.08105 20.2125L6.11855 25.2312H4.6748L5.9123 18.6312H8.45605L8.59355 22.7562L10.3811 18.6312H12.9936L11.6873 25.2312Z" fill="white"/>
<path fill-rule="evenodd" clip-rule="evenodd" d="M10.1059 22.3437L11.0684 20.2125L10.3121 24.2C10.3809 24.5437 10.4496 24.9562 10.5871 25.2999H11.6871L12.9246 18.7H10.5184C10.2434 19.7312 10.0371 20.8999 10.0371 22.0687C10.1059 22.1374 10.1059 22.2062 10.1059 22.3437Z" fill="#DCE5E5"/>
<path fill-rule="evenodd" clip-rule="evenodd" d="M29.7002 25.1624C29.2189 25.2999 28.9439 25.3687 28.5314 25.3687C27.7064 25.3687 27.2939 24.9562 27.2939 24.2C27.2939 24.0625 27.2939 23.925 27.3627 23.7187L27.4314 23.1687L27.5002 22.7562L28.2564 18.7H29.8377L29.6314 19.9375H30.4564L30.2502 21.175H29.4252L29.0127 23.375C29.0127 23.4437 28.9439 23.5812 28.9439 23.5812C28.9439 23.8562 29.1502 23.9937 29.4939 23.9937C29.7002 23.9937 29.8377 23.9937 29.9064 23.925L29.7002 25.1624Z" fill="#DCE5E5"/>
<path fill-rule="evenodd" clip-rule="evenodd" d="M34.4437 19.9374C34.3062 19.8687 34.3062 19.8687 34.2375 19.8687C34.1687 19.8687 34.1 19.8687 34.1 19.7999C34.0312 19.7999 34.0312 19.7999 33.8937 19.7999C33.3437 19.7999 33 20.0062 32.5187 20.6937L32.6562 19.8687H31.2125L30.25 25.2312H31.9C32.45 21.9312 32.725 21.3812 33.4813 21.3812C33.55 21.3812 33.6187 21.3812 33.6875 21.3812L33.8937 21.4499L34.4437 19.9374Z" fill="#DCE5E5"/>
<path fill-rule="evenodd" clip-rule="evenodd" d="M23.3063 21.5874C23.3063 22.2749 23.7188 22.7562 24.5438 23.0312C25.2313 23.3062 25.3 23.3749 25.3 23.6499C25.3 23.9937 25.025 24.1312 24.3375 24.1312C23.8563 24.1312 23.375 24.0624 22.8937 23.9249L22.6875 25.1624H22.7562L23.0312 25.2312C23.1 25.2312 23.3062 25.2312 23.4437 25.2312C23.8562 25.2999 24.1313 25.2999 24.3375 25.2999C26.0563 25.2999 26.8812 24.7499 26.8812 23.5124C26.8812 22.7562 26.5375 22.3437 25.7125 21.9999C25.025 21.7249 24.9562 21.6562 24.9562 21.4499C24.9562 21.1749 25.2313 21.0374 25.7812 21.0374C26.0563 21.0374 26.5375 21.0374 26.95 21.1062L27.1562 19.8687C26.7438 19.7999 26.125 19.7999 25.7125 19.7999C23.925 19.7999 23.3063 20.6249 23.3063 21.5874Z" fill="#DCE5E5"/>
<path fill-rule="evenodd" clip-rule="evenodd" d="M16.9121 25.2312H15.6059V24.6812C15.1934 25.0937 14.6434 25.2999 13.8871 25.2999C12.9934 25.2999 12.4434 24.6812 12.4434 23.8562C12.4434 22.55 13.4746 21.7937 15.2621 21.7937C15.4684 21.7937 15.6746 21.7937 15.9496 21.7937C16.0184 21.5875 16.0184 21.5187 16.0184 21.45C16.0184 21.1062 15.7434 20.9687 14.9871 20.9687C14.5059 20.9687 14.0246 21.0375 13.6809 21.1062L13.4746 21.175H13.3371L13.5434 20.0062C14.3684 19.8 14.8496 19.7312 15.4684 19.7312C16.8434 19.7312 17.5996 20.2812 17.5996 21.3125C17.5996 21.5875 17.5996 21.7937 17.4621 22.4124L17.1184 24.3375L17.0496 24.6812L16.9809 24.9562V25.1624L16.9121 25.2312ZM15.7434 22.825C15.5371 22.825 15.4684 22.825 15.3996 22.825C14.5059 22.825 14.0246 23.1 14.0246 23.65C14.0246 23.9937 14.2309 24.2 14.5746 24.2C15.2621 24.2 15.7434 23.65 15.7434 22.825Z" fill="#DCE5E5"/>
<path fill-rule="evenodd" clip-rule="evenodd" d="M22.2066 25.0937C21.6566 25.2312 21.1066 25.2999 20.5566 25.2999C18.7691 25.2999 17.8066 24.4749 17.8066 22.8937C17.8066 21.0374 18.9754 19.7312 20.6254 19.7312C21.9316 19.7312 22.7566 20.4875 22.7566 21.6562C22.7566 22.0687 22.6879 22.4125 22.5504 22.9625H19.3191C19.3191 23.0312 19.3191 23.1 19.3191 23.1687C19.3191 23.7875 19.8004 24.1312 20.6941 24.1312C21.3129 24.1312 21.7941 24.0624 22.3441 23.7874L22.2066 25.0937ZM21.3816 21.9312C21.3816 21.8625 21.3816 21.725 21.3816 21.6562C21.3816 21.2437 21.1066 20.9687 20.6254 20.9687C20.1441 20.9687 19.7316 21.3125 19.5941 21.9312H21.3816Z" fill="#DCE5E5"/>
<path fill-rule="evenodd" clip-rule="evenodd" d="M39.4621 22.825C39.1871 24.6125 37.9496 25.3687 36.2996 25.3687C34.5121 25.3687 33.7559 24.2687 33.7559 22.8937C33.7559 21.0375 34.9934 19.7312 36.9184 19.7312C38.5684 19.7312 39.4621 20.8312 39.4621 22.1375C39.4621 22.4812 39.4621 22.4812 39.4621 22.825ZM37.7434 22.1375C37.7434 21.5875 37.5371 21.1062 36.8496 21.1062C36.0246 21.1062 35.5434 22.0687 35.5434 22.9625C35.5434 23.65 35.8871 24.1312 36.4371 24.1312C36.7809 24.1312 37.5371 23.65 37.6746 22.825C37.7434 22.55 37.7434 22.3437 37.7434 22.1375Z" fill="white"/>
<path fill-rule="evenodd" clip-rule="evenodd" d="M33.825 23.5124C33.8938 23.0312 33.9625 22.4812 33.9625 21.9999C33.9625 21.9312 33.9625 21.8624 33.9625 21.8624C33.8938 22.2062 33.825 22.5499 33.825 22.9624C33.7562 23.0999 33.7562 23.3062 33.825 23.5124Z" fill="white"/>
</svg>
