<svg width="44" height="44" viewBox="0 0 44 44" fill="none" xmlns="http://www.w3.org/2000/svg">
<path d="M43.6564 22C43.6564 29.15 37.8814 34.9937 30.6627 34.9937C23.5127 34.9937 17.6689 29.15 17.6689 22C17.6689 14.85 23.4439 9.00623 30.5939 9.00623C37.8814 9.00623 43.6564 14.85 43.6564 22Z" fill="#FFB600"/>
<path d="M30.6627 9.00623C37.8127 9.00623 43.6564 14.85 43.6564 22C43.6564 29.15 37.8814 34.9937 30.6627 34.9937C23.5127 34.9937 17.6689 29.15 17.6689 22" fill="#F7981D"/>
<path d="M30.6621 9.00623C37.8121 9.00623 43.6559 14.85 43.6559 22C43.6559 29.15 37.8809 34.9937 30.6621 34.9937" fill="#FF8500"/>
<path d="M13.2 9.00623C6.11875 9.07498 0.34375 14.85 0.34375 22C0.34375 29.15 6.11875 34.9937 13.3375 34.9937C16.7062 34.9937 19.7312 33.6875 22.0687 31.625C22.55 31.2125 22.9625 30.7312 23.375 30.25H20.6938C20.35 29.8375 20.0063 29.3562 19.7313 28.9437H24.3375C24.6125 28.5312 24.8875 28.05 25.0938 27.5687H18.975C18.7688 27.1562 18.5625 26.675 18.425 26.1937H25.575C25.9875 24.8875 26.2625 23.5125 26.2625 22.0687C26.2625 21.1062 26.125 20.2125 25.9875 19.3187H18.0125C18.0813 18.8375 18.2188 18.425 18.3563 17.9437H25.5062C25.3687 17.4625 25.1625 16.9812 24.9562 16.5687H18.9062C19.1125 16.0875 19.3875 15.675 19.6625 15.1937H24.2687C23.9937 14.7125 23.65 14.2312 23.2375 13.8187H20.6938C21.1063 13.3375 21.5187 12.925 22 12.5125C19.7313 10.3812 16.6375 9.14373 13.2687 9.14373C13.2687 9.00623 13.2688 9.00623 13.2 9.00623Z" fill="#FF5050"/>
<path d="M0.34375 21.9999C0.34375 29.1499 6.11875 34.9937 13.3375 34.9937C16.7062 34.9937 19.7312 33.6874 22.0687 31.6249C22.55 31.2124 22.9625 30.7312 23.375 30.2499H20.6938C20.35 29.8374 20.0063 29.3562 19.7313 28.9437H24.3375C24.6125 28.5312 24.8875 28.0499 25.0938 27.5687H18.975C18.7688 27.1562 18.5625 26.6749 18.425 26.1937H25.575C25.9875 24.8874 26.2625 23.5124 26.2625 22.0687C26.2625 21.1062 26.125 20.2124 25.9875 19.3187H18.0125C18.0813 18.8374 18.2188 18.4249 18.3563 17.9437H25.5062C25.3687 17.4624 25.1625 16.9812 24.9562 16.5687H18.9062C19.1125 16.0874 19.3875 15.6749 19.6625 15.1937H24.2687C23.9937 14.7124 23.65 14.2312 23.2375 13.8187H20.6938C21.1063 13.3374 21.5187 12.9249 22 12.5124C19.7313 10.3812 16.6375 9.14368 13.2687 9.14368H13.2" fill="#E52836"/>
<path d="M13.3377 34.9937C16.7064 34.9937 19.7314 33.6874 22.0689 31.6249C22.5502 31.2124 22.9627 30.7312 23.3752 30.2499H20.6939C20.3502 29.8374 20.0064 29.3562 19.7314 28.9437H24.3377C24.6127 28.5312 24.8877 28.0499 25.0939 27.5687H18.9752C18.7689 27.1562 18.5627 26.6749 18.4252 26.1937H25.5752C25.9877 24.8874 26.2627 23.5124 26.2627 22.0687C26.2627 21.1062 26.1252 20.2124 25.9877 19.3187H18.0127C18.0814 18.8374 18.2189 18.4249 18.3564 17.9437H25.5064C25.3689 17.4624 25.1627 16.9812 24.9564 16.5687H18.9064C19.1127 16.0874 19.3877 15.6749 19.6627 15.1937H24.2689C23.9939 14.7124 23.6502 14.2312 23.2377 13.8187H20.6939C21.1064 13.3374 21.5189 12.9249 22.0002 12.5124C19.7314 10.3812 16.6377 9.14368 13.2689 9.14368H13.2002" fill="#CB2026"/>
<path d="M17.9439 25.3L18.1502 24.1312C18.0814 24.1312 17.9439 24.2 17.8064 24.2C17.3252 24.2 17.2564 23.925 17.3252 23.7875L17.7377 21.3813H18.4939L18.7002 20.075H18.0127L18.1502 19.25H16.7752C16.7752 19.25 15.9502 23.7875 15.9502 24.3375C15.9502 25.1625 16.4314 25.5062 17.0502 25.5062C17.4627 25.5062 17.8064 25.3687 17.9439 25.3Z" fill="white"/>
<path d="M18.4248 23.1C18.4248 25.025 19.7311 25.5063 20.8311 25.5063C21.8623 25.5063 22.2748 25.3 22.2748 25.3L22.5498 23.9938C22.5498 23.9938 21.7936 24.3375 21.1061 24.3375C19.5936 24.3375 19.8686 23.2375 19.8686 23.2375H22.6873C22.6873 23.2375 22.8936 22.3438 22.8936 22C22.8936 21.1063 22.4123 20.0063 20.8998 20.0063C19.4561 19.8688 18.4248 21.3813 18.4248 23.1ZM20.8311 21.1063C21.5873 21.1063 21.4498 22 21.4498 22.0688H19.9373C19.9373 22 20.0748 21.1063 20.8311 21.1063Z" fill="white"/>
<path d="M29.5625 25.3L29.8375 23.7875C29.8375 23.7875 29.15 24.1312 28.6688 24.1312C27.7063 24.1312 27.2938 23.375 27.2938 22.55C27.2938 20.9 28.1187 20.0062 29.0812 20.0062C29.7687 20.0062 30.3187 20.4187 30.3187 20.4187L30.525 18.975C30.525 18.975 29.7 18.6312 28.9437 18.6312C27.3625 18.6312 25.7812 20.0062 25.7812 22.6187C25.7812 24.3375 26.6062 25.5062 28.2562 25.5062C28.8062 25.5062 29.5625 25.3 29.5625 25.3Z" fill="white"/>
<path d="M10.3811 19.8688C9.41855 19.8688 8.73105 20.1438 8.73105 20.1438L8.5248 21.3125C8.5248 21.3125 9.14355 21.0375 10.0373 21.0375C10.5186 21.0375 10.9311 21.1063 10.9311 21.5188C10.9311 21.7938 10.8623 21.8625 10.8623 21.8625C10.8623 21.8625 10.4498 21.8625 10.2436 21.8625C9.0748 21.8625 7.76855 22.3438 7.76855 23.925C7.76855 25.1625 8.59355 25.4375 9.0748 25.4375C10.0373 25.4375 10.4498 24.8188 10.5186 24.8188L10.4498 25.3688H11.6873L12.2373 21.5875C12.2373 19.9375 10.8623 19.8688 10.3811 19.8688ZM10.6561 22.9625C10.6561 23.1688 10.5186 24.2688 9.69355 24.2688C9.28105 24.2688 9.14355 23.925 9.14355 23.7188C9.14355 23.375 9.3498 22.8938 10.3811 22.8938C10.5873 22.9625 10.6561 22.9625 10.6561 22.9625Z" fill="white"/>
<path d="M13.5432 25.4374C13.8869 25.4374 15.6057 25.5062 15.6057 23.6499C15.6057 21.9312 13.9557 22.2749 13.9557 21.5874C13.9557 21.2437 14.2307 21.1062 14.7119 21.1062C14.9182 21.1062 15.6744 21.1749 15.6744 21.1749L15.8807 19.9374C15.8807 19.9374 15.3994 19.7999 14.5744 19.7999C13.5432 19.7999 12.5119 20.2124 12.5119 21.5874C12.5119 23.1687 14.2307 23.0312 14.2307 23.6499C14.2307 24.0624 13.7494 24.1312 13.4057 24.1312C12.7869 24.1312 12.1682 23.9249 12.1682 23.9249L11.9619 25.1624C12.0307 25.2999 12.3744 25.4374 13.5432 25.4374Z" fill="white"/>
<path d="M40.9744 18.7687L40.6994 20.6249C40.6994 20.6249 40.1494 19.9374 39.3932 19.9374C38.1557 19.9374 37.0557 21.4499 37.0557 23.2374C37.0557 24.3374 37.6057 25.5062 38.7744 25.5062C39.5994 25.5062 40.0807 24.9562 40.0807 24.9562L40.0119 25.4374H41.3869L42.4182 18.8374L40.9744 18.7687ZM40.3557 22.4124C40.3557 23.1687 40.0119 24.1312 39.2557 24.1312C38.7744 24.1312 38.4994 23.7187 38.4994 23.0312C38.4994 21.9312 38.9807 21.2437 39.5994 21.2437C40.0807 21.2437 40.3557 21.5874 40.3557 22.4124Z" fill="white"/>
<path d="M2.8873 25.3687L3.7123 20.4187L3.8498 25.3687H4.8123L6.5998 20.4187L5.84355 25.3687H7.2873L8.3873 18.7687H6.11855L4.74356 22.8249L4.6748 18.7687H2.68105L1.58105 25.3687H2.8873Z" fill="white"/>
<path d="M24.2 25.3687C24.6125 23.1 24.6812 21.2437 25.6437 21.5875C25.7812 20.6937 25.9875 20.35 26.125 20.0062C26.125 20.0062 26.0562 20.0062 25.85 20.0062C25.2312 20.0062 24.75 20.8312 24.75 20.8312L24.8875 20.075H23.5812L22.6875 25.4375H24.2V25.3687Z" fill="white"/>
<path d="M32.7248 19.8688C31.7623 19.8688 31.0748 20.1438 31.0748 20.1438L30.8686 21.3125C30.8686 21.3125 31.4873 21.0375 32.3811 21.0375C32.8623 21.0375 33.2748 21.1063 33.2748 21.5188C33.2748 21.7938 33.2061 21.8625 33.2061 21.8625C33.2061 21.8625 32.7936 21.8625 32.5873 21.8625C31.4186 21.8625 30.1123 22.3438 30.1123 23.925C30.1123 25.1625 30.9373 25.4375 31.4186 25.4375C32.3811 25.4375 32.7936 24.8188 32.8623 24.8188L32.7936 25.3688H34.0311L34.5811 21.5875C34.6498 19.9375 33.2061 19.8688 32.7248 19.8688ZM33.0686 22.9625C33.0686 23.1688 32.9311 24.2688 32.1061 24.2688C31.6936 24.2688 31.5561 23.925 31.5561 23.7188C31.5561 23.375 31.7623 22.8938 32.7936 22.8938C32.9998 22.9625 32.9998 22.9625 33.0686 22.9625Z" fill="white"/>
<path d="M35.7498 25.3687C36.1623 23.1 36.2311 21.2437 37.1936 21.5875C37.3311 20.6937 37.5373 20.35 37.6748 20.0062C37.6748 20.0062 37.6061 20.0062 37.3998 20.0062C36.7811 20.0062 36.2998 20.8312 36.2998 20.8312L36.4373 20.075H35.1311L34.2373 25.4375H35.7498V25.3687Z" fill="white"/>
<path d="M15.8125 24.3375C15.8125 25.1625 16.2938 25.5062 16.9125 25.5062C17.3937 25.5062 17.8062 25.3687 17.9437 25.3L18.15 24.1312C18.0812 24.1312 17.9437 24.2 17.8062 24.2C17.325 24.2 17.2563 23.925 17.325 23.7875L17.7375 21.3813H18.4937L18.7 20.075H18.0125L18.15 19.25" fill="#DCE5E5"/>
<path d="M19.1123 23.1C19.1123 25.025 19.7311 25.5063 20.8311 25.5063C21.8623 25.5063 22.2748 25.3 22.2748 25.3L22.5498 23.9938C22.5498 23.9938 21.7936 24.3375 21.1061 24.3375C19.5936 24.3375 19.8686 23.2375 19.8686 23.2375H22.6873C22.6873 23.2375 22.8936 22.3438 22.8936 22C22.8936 21.1063 22.4123 20.0063 20.8998 20.0063C19.4561 19.8688 19.1123 21.3813 19.1123 23.1ZM20.8311 21.1063C21.5873 21.1063 21.7248 22 21.7248 22.0688H19.9373C19.9373 22 20.0748 21.1063 20.8311 21.1063Z" fill="#DCE5E5"/>
<path d="M29.5625 25.3L29.8375 23.7875C29.8375 23.7875 29.15 24.1312 28.6688 24.1312C27.7063 24.1312 27.2938 23.375 27.2938 22.55C27.2938 20.9 28.1187 20.0062 29.0812 20.0062C29.7687 20.0062 30.3187 20.4187 30.3187 20.4187L30.525 18.975C30.525 18.975 29.7 18.6312 28.9437 18.6312C27.3625 18.6312 26.4688 20.0062 26.4688 22.6187C26.4688 24.3375 26.6062 25.5062 28.2562 25.5062C28.8062 25.5062 29.5625 25.3 29.5625 25.3Z" fill="#DCE5E5"/>
<path d="M8.5248 21.3812C8.5248 21.3812 9.14355 21.1062 10.0373 21.1062C10.5186 21.1062 10.9311 21.175 10.9311 21.5875C10.9311 21.8625 10.8623 21.9312 10.8623 21.9312C10.8623 21.9312 10.4498 21.9312 10.2436 21.9312C9.0748 21.9312 7.76855 22.4125 7.76855 23.9937C7.76855 25.2312 8.59355 25.5062 9.0748 25.5062C10.0373 25.5062 10.4498 24.8875 10.5186 24.8875L10.4498 25.4375H11.6873L12.2373 21.6562C12.2373 20.075 10.8623 20.0062 10.3123 20.0062L8.5248 21.3812ZM11.3436 22.9625C11.3436 23.1687 10.5186 24.2687 9.69355 24.2687C9.28105 24.2687 9.14355 23.925 9.14355 23.7187C9.14355 23.375 9.3498 22.8937 10.3811 22.8937C10.5873 22.9625 11.3436 22.9625 11.3436 22.9625Z" fill="#DCE5E5"/>
<path d="M12.0312 25.2999C12.0312 25.2999 12.4437 25.4374 13.6125 25.4374C13.9562 25.4374 15.675 25.5062 15.675 23.6499C15.675 21.9312 14.025 22.2749 14.025 21.5874C14.025 21.2437 14.3 21.1062 14.7813 21.1062C14.9875 21.1062 15.7438 21.1749 15.7438 21.1749L15.95 19.9374C15.95 19.9374 15.4687 19.7999 14.6437 19.7999C13.6125 19.7999 13.2687 20.2124 13.2687 21.5874C13.2687 23.1687 14.3 23.0312 14.3 23.6499C14.3 24.0624 13.8188 24.1312 13.475 24.1312" fill="#DCE5E5"/>
<path d="M40.6995 20.625C40.6995 20.625 40.1495 19.9375 39.3933 19.9375C38.1558 19.9375 37.7433 21.45 37.7433 23.2375C37.7433 24.3375 37.6058 25.5063 38.7745 25.5063C39.5995 25.5063 40.0808 24.9563 40.0808 24.9563L40.012 25.4375H41.387L42.4183 18.8375L40.6995 20.625ZM40.6308 22.4125C40.6308 23.1688 40.012 24.1313 39.2558 24.1313C38.7745 24.1313 38.4995 23.7188 38.4995 23.0313C38.4995 21.9313 38.9808 21.2438 39.5995 21.2438C40.0808 21.2438 40.6308 21.5875 40.6308 22.4125Z" fill="#DCE5E5"/>
<path d="M2.8873 25.3687L3.7123 20.4187L3.8498 25.3687H4.8123L6.5998 20.4187L5.84355 25.3687H7.2873L8.3873 18.7687H6.66855L4.74356 22.8249L4.6748 18.7687H3.91855L1.58105 25.3687H2.8873Z" fill="#DCE5E5"/>
<path d="M22.7559 25.3687H24.1996C24.6121 23.1 24.6809 21.2437 25.6434 21.5875C25.7809 20.6937 25.9871 20.35 26.1246 20.0062C26.1246 20.0062 26.0559 20.0062 25.8496 20.0062C25.2309 20.0062 24.7496 20.8312 24.7496 20.8312L24.8871 20.075" fill="#DCE5E5"/>
<path d="M30.8686 21.3812C30.8686 21.3812 31.4873 21.1062 32.3811 21.1062C32.8623 21.1062 33.2748 21.175 33.2748 21.5875C33.2748 21.8625 33.2061 21.9312 33.2061 21.9312C33.2061 21.9312 32.7936 21.9312 32.5873 21.9312C31.4186 21.9312 30.1123 22.4125 30.1123 23.9937C30.1123 25.2312 30.9373 25.5062 31.4186 25.5062C32.3811 25.5062 32.7936 24.8875 32.8623 24.8875L32.7936 25.4375H34.0311L34.5811 21.6562C34.5811 20.075 33.2061 20.0062 32.6561 20.0062L30.8686 21.3812ZM33.6873 22.9625C33.6873 23.1687 32.8623 24.2687 32.0373 24.2687C31.6248 24.2687 31.4873 23.925 31.4873 23.7187C31.4873 23.375 31.6936 22.8937 32.7248 22.8937C32.9998 22.9625 33.6873 22.9625 33.6873 22.9625Z" fill="#DCE5E5"/>
<path d="M34.3057 25.3687H35.7494C36.1619 23.1 36.2307 21.2437 37.1932 21.5875C37.3307 20.6937 37.5369 20.35 37.6744 20.0062C37.6744 20.0062 37.6057 20.0062 37.3994 20.0062C36.7807 20.0062 36.2994 20.8312 36.2994 20.8312L36.4369 20.075" fill="#DCE5E5"/>
</svg>
