<svg width="41" height="42" viewBox="0 0 41 42" fill="none" xmlns="http://www.w3.org/2000/svg">
<path d="M9.48255 6.79828C7.09593 6.79828 4.8806 8.6462 4.32956 11.0964C4.32956 11.097 0.124336 29.8198 0.124336 29.8198C-0.186743 31.1993 0.0923713 32.5889 0.889033 33.6332C1.673 34.6582 2.88367 35.247 4.20904 35.247H31.4962C33.8818 35.247 36.0975 33.3999 36.6512 30.9511C36.6512 30.9483 40.8558 12.2255 40.8558 12.2255C41.1672 10.8462 40.8878 9.45383 40.0905 8.41151C39.3058 7.38642 38.0966 6.79828 36.7711 6.79828H9.48255Z" fill="white"/>
<path d="M9.86462 9.83344H18.5826C19.8 9.83344 20.5568 10.8482 20.2722 12.0987L16.2137 29.948C15.9279 31.1983 14.7096 32.2125 13.4926 32.2125H4.77464C3.55632 32.2125 2.80003 31.1983 3.08573 29.948L7.14489 12.0987C7.42936 10.8482 8.6463 9.83344 9.86462 9.83344Z" fill="#ED1C24"/>
<path d="M17.8592 9.83344H26.5766C27.7948 9.83344 28.5514 10.8482 28.2655 12.0987L24.2064 29.948C23.9205 31.1983 22.7036 32.2125 21.484 32.2125H12.768C11.5485 32.2125 10.7933 31.1983 11.0789 29.948L15.137 12.0987C15.4227 10.8482 16.6411 9.83344 17.8592 9.83344Z" fill="#00569E"/>
<path d="M27.4892 9.83344H36.2058C37.4241 9.83344 38.1806 10.8482 37.8949 12.0987L33.8371 29.948C33.5513 31.1983 32.3331 32.2125 31.1146 32.2125H22.3968C21.1784 32.2125 20.422 31.1983 20.7078 29.948L24.7656 12.0987C25.0513 10.8482 26.2696 9.83344 27.4892 9.83344Z" fill="#00898E"/>
<path fill-rule="evenodd" clip-rule="evenodd" d="M28.7857 23.0103L27.9629 26.6107H28.2474L28.0753 27.358H27.7907L27.7384 27.5861H26.7281L26.7804 27.358H24.7266L24.8873 26.6688L25.0965 26.6655L25.932 23.0103L26.098 22.2714H27.1299L27.0483 22.6459C27.0483 22.6459 27.3085 22.4414 27.5636 22.3728C27.8201 22.3042 29.3138 22.2774 29.3138 22.2774L29.1404 23.0103H28.7857ZM26.9679 23.0103L26.7573 23.9317C26.7573 23.9317 27.0534 23.7892 27.2179 23.7435C27.3837 23.6984 27.6364 23.6808 27.6364 23.6808L27.7883 23.0103H26.9679ZM26.6516 24.3904L26.4334 25.3451C26.4334 25.3451 26.7344 25.1811 26.9004 25.1352C27.065 25.0896 27.3186 25.0608 27.3186 25.0608L27.4744 24.3904H26.6516ZM26.1426 26.6217H26.9641L27.1491 25.8108H26.3275L26.1426 26.6217Z" fill="white"/>
<path fill-rule="evenodd" clip-rule="evenodd" d="M29.3711 22.2816H30.4707L30.4836 22.7009C30.4772 22.7689 30.5359 22.803 30.6647 22.8054H30.8496L30.6838 23.4994H30.0895C29.574 23.5373 29.3787 23.3098 29.3916 23.0557L29.3711 22.2816Z" fill="white"/>
<path fill-rule="evenodd" clip-rule="evenodd" d="M29.5584 25.5651H28.5085L28.6489 24.947H29.8467L29.9807 24.3813H28.797L28.9563 23.6866H32.2502L32.0894 24.3813H30.9834L30.8496 24.947H31.9568L31.8152 25.5651H30.6186L30.4209 25.8259H30.9069L31.0791 26.6046C31.0929 26.6812 31.1007 26.7316 31.1262 26.7634C31.1518 26.791 31.2997 26.8048 31.3839 26.8048H31.5308L31.3573 27.5645H30.9834C30.926 27.5645 30.8393 27.562 30.722 27.5513C30.6082 27.5424 30.523 27.4756 30.445 27.439C30.3736 27.4051 30.2652 27.3182 30.2308 27.1737L30.0636 26.3976L29.5713 27.1645C29.4118 27.4025 29.1899 27.5869 28.7956 27.5869H28.0303L28.1846 26.9137H28.4781C28.5622 26.9137 28.6361 26.8786 28.6884 26.8505C28.7421 26.8248 28.7893 26.7955 28.8416 26.7138L29.5584 25.5651Z" fill="white"/>
<path fill-rule="evenodd" clip-rule="evenodd" d="M17.9579 23.8812H20.7345L20.5751 24.5609H19.46L19.3242 25.1398H20.4577L20.2931 25.8427H19.1595L18.9396 26.7802C18.914 26.8857 19.217 26.8999 19.3268 26.8999L19.8898 26.8229L19.7089 27.5952H18.4274C18.3252 27.5952 18.2469 27.5833 18.134 27.5547C18.0242 27.5279 17.9739 27.4776 17.921 27.4018C17.8705 27.3286 17.7953 27.2645 17.8335 27.1014L18.1258 25.8546H17.4941L17.6619 25.1398H18.2948L18.4292 24.5609H17.7991L17.9579 23.8812Z" fill="white"/>
<path fill-rule="evenodd" clip-rule="evenodd" d="M19.7542 22.6607H20.8947L20.7287 23.3684H19.1718L19.0111 23.5206C18.9453 23.5911 18.9167 23.5617 18.8268 23.6121C18.7401 23.6591 18.5608 23.748 18.3208 23.748H17.8223L17.9822 23.0657H18.1317C18.2591 23.0657 18.3453 23.0541 18.388 23.0248C18.4339 22.9953 18.4856 22.9214 18.5417 22.8044L18.7954 22.2714H19.9302L19.7542 22.6607Z" fill="white"/>
<path fill-rule="evenodd" clip-rule="evenodd" d="M21.3599 22.2727H22.3319L22.2197 22.7744C22.2197 22.7744 22.5118 22.5229 22.7223 22.4387C22.9315 22.3536 23.4111 22.2818 23.4111 22.2818L24.9801 22.2715L24.5566 24.0981C24.484 24.4107 24.392 24.6131 24.3335 24.7064C24.2773 24.7979 24.2149 24.8797 24.082 24.9568C23.952 25.0273 23.8346 25.0679 23.7249 25.0795C23.6191 25.0887 23.4609 25.092 23.2413 25.0945H21.7285L21.3905 26.5406C21.356 26.6836 21.3418 26.7508 21.37 26.7887C21.3957 26.824 21.4492 26.8635 21.5205 26.8635L22.1827 26.798L22.0028 27.5904H21.254C21.018 27.5904 20.8432 27.5873 20.7233 27.5755C20.6073 27.5663 20.4873 27.5755 20.4045 27.51C20.3291 27.4488 20.2194 27.3678 20.2168 27.2829C20.2194 27.2038 20.2423 27.0739 20.2806 26.8959L21.3599 22.2727ZM23.5336 24.1205H21.9427L21.8649 24.4484H23.2427C23.4048 24.4313 23.4391 24.4522 23.4519 24.4464L23.5336 24.1205ZM22.0115 23.8238C22.0115 23.8238 22.3037 23.5324 22.8321 23.437C22.952 23.4147 23.711 23.4213 23.711 23.4213L23.8014 23.0305H22.1966L22.0115 23.8238Z" fill="white"/>
<path fill-rule="evenodd" clip-rule="evenodd" d="M24.3694 25.2245L24.3083 25.6643C24.2749 25.7995 24.2508 25.9034 24.1552 25.9935C24.0544 26.0862 23.9345 26.1818 23.6436 26.1818L23.1078 26.2033L23.1308 26.6985C23.1348 26.8423 23.1692 26.8274 23.1921 26.85C23.2175 26.8741 23.2417 26.8849 23.2661 26.8914L23.437 26.8849L23.9473 26.8528L23.78 27.5799H23.1907C22.7749 27.5799 22.4687 27.5669 22.3629 27.4898C22.2595 27.42 22.2404 27.3396 22.2353 27.2044L22.1562 25.2683H23.099L23.1103 25.6643H23.3362C23.4152 25.6643 23.4663 25.6563 23.4983 25.6355C23.5251 25.6145 23.5428 25.5819 23.5556 25.5324L23.6271 25.2245H24.3694Z" fill="white"/>
<path d="M10.8961 15.5353C10.8631 15.6953 10.2571 18.5533 10.2558 18.5545C10.1256 19.1309 10.0313 19.5465 9.71115 19.813C9.52487 19.9659 9.31443 20.041 9.06697 20.041C8.67009 20.041 8.43793 19.838 8.39725 19.4543L8.38945 19.3242C8.38945 19.3242 8.51073 18.5493 8.51195 18.5454C8.51195 18.5454 9.14849 15.9397 9.26075 15.5935C9.26457 15.5751 9.26717 15.5648 9.27099 15.5529C8.03478 15.5687 7.81424 15.5568 7.79895 15.5345C7.79253 15.5621 7.75934 15.7241 7.75934 15.7241L7.11133 18.6625L7.05521 18.9112L6.94922 19.7242C6.94922 19.9666 6.99525 20.1645 7.08839 20.3293C7.38296 20.8598 8.22626 20.9395 8.70206 20.9395C9.31565 20.9395 9.89101 20.8023 10.2813 20.5625C10.9549 20.1514 11.1335 19.5099 11.2916 18.944L11.3644 18.6526C11.3644 18.6526 12.0187 15.9449 12.1311 15.5928C12.1349 15.5739 12.1374 15.5648 12.14 15.5529C11.2457 15.5667 10.9804 15.5555 10.8961 15.5353Z" fill="white"/>
<path d="M14.5151 20.9045C14.0749 20.8993 13.9232 20.8993 13.4104 20.9228L13.3899 20.8876C13.4345 20.6848 13.4842 20.489 13.5289 20.2864L13.5901 20.0152C13.6858 19.5872 13.779 19.0965 13.7892 18.9456C13.7993 18.8542 13.8274 18.6281 13.5762 18.6281C13.4689 18.6281 13.3567 18.6804 13.2444 18.7326C13.1833 18.9574 13.0581 19.5938 12.9996 19.8825C12.8732 20.4948 12.8642 20.564 12.8082 20.8641L12.7711 20.9045C12.3196 20.8993 12.1625 20.8993 11.6435 20.9228L11.6191 20.8824C11.706 20.5177 11.7927 20.1537 11.8744 19.7898C12.0937 18.8078 12.1448 18.4321 12.2047 17.9354L12.2456 17.9003C12.7533 17.8309 12.8745 17.814 13.4255 17.6982L13.4703 17.7499L13.3873 18.0675C13.4792 18.01 13.5697 17.9525 13.6655 17.9003C13.9232 17.7734 14.2113 17.7329 14.3682 17.7329C14.6082 17.7329 14.8722 17.8023 14.9818 18.0857C15.0878 18.3392 15.0176 18.6516 14.8798 19.2696L14.8098 19.582C14.6681 20.2694 14.645 20.3963 14.5686 20.8641L14.5151 20.9045Z" fill="white"/>
<path d="M16.2965 20.9098C16.0312 20.9073 15.8614 20.9059 15.6956 20.9079C15.5311 20.9098 15.3703 20.9162 15.1241 20.9281L15.11 20.9073L15.0947 20.8877C15.1611 20.6262 15.1967 20.5347 15.2313 20.4432C15.2643 20.3511 15.2963 20.2584 15.355 19.995C15.4315 19.6533 15.4788 19.4103 15.5132 19.2018C15.5477 18.9948 15.5693 18.8222 15.5936 18.6231L15.614 18.606L15.6357 18.5876C15.8984 18.5505 16.0656 18.5256 16.2352 18.4974C16.4062 18.4694 16.5796 18.4374 16.854 18.3851L16.8717 18.4321C16.8206 18.6458 16.7697 18.8607 16.72 19.0746C16.6702 19.2881 16.6218 19.5031 16.5732 19.7168C16.4738 20.1689 16.4355 20.34 16.4126 20.4564C16.3895 20.5727 16.3831 20.6355 16.345 20.8694L16.3207 20.8901L16.2965 20.9098Z" fill="white"/>
<path d="M20.2356 19.3582C20.3899 18.6662 20.2726 18.3434 20.1207 18.1468C19.891 17.8474 19.49 17.7495 19.0702 17.7495C18.8189 17.7495 18.2207 17.7782 17.7524 18.2227C17.4183 18.5388 17.2601 18.9712 17.167 19.3869C17.0726 19.8083 16.9628 20.5754 17.644 20.8517C17.8583 20.9446 18.1594 20.9735 18.3546 20.9735C18.8571 20.9735 19.3701 20.8296 19.7546 20.4082C20.0531 20.0737 20.1884 19.5659 20.2356 19.3582ZM19.0906 19.3065C19.0651 19.4221 18.9669 19.86 18.8305 20.0443C18.7398 20.1774 18.6263 20.2584 18.5038 20.2584C18.4694 20.2584 18.2525 20.2584 18.2473 19.9293C18.2449 19.7677 18.2769 19.6006 18.3175 19.4162C18.4336 18.8968 18.5702 18.4591 18.9172 18.4591C19.1914 18.4591 19.208 18.7818 19.0906 19.3065Z" fill="white"/>
<path d="M29.9006 20.104C29.8101 20.2353 29.597 20.3163 29.4744 20.3163C29.4401 20.3163 29.2232 20.3163 29.218 19.9897C29.2156 19.8289 29.2474 19.6629 29.2882 19.48C29.4042 18.9651 29.5407 18.53 29.8878 18.53C30.1137 18.53 30.2233 18.7568 30.1929 19.126C30.1748 19.2088 30.1595 19.2839 30.1378 19.382C30.1008 19.5429 30.0575 19.7009 30.0193 19.8609C29.9835 19.955 29.9451 20.0439 29.9006 20.104ZM31.6356 17.7903C31.087 17.8928 30.9429 17.9158 30.4171 17.9904L30.3764 18.0243C30.37 18.07 30.3649 18.1118 30.3587 18.1557C30.2768 18.0183 30.162 17.8981 29.9771 17.8256C29.7423 17.7328 29.1914 17.8544 28.7231 18.2948C28.389 18.6097 28.2307 19.039 28.1377 19.4512C28.0433 19.8695 27.9335 20.6312 28.6147 20.9057C28.829 20.9974 29.0269 21.0246 29.222 21.0141C29.4311 21.0032 29.6226 20.8907 29.8024 20.7365C29.7856 20.8018 29.7705 20.8678 29.7538 20.9331L29.7845 20.9739C30.2756 20.9502 30.4261 20.9502 30.9556 20.9566L31.0041 20.9161C31.0805 20.4522 31.1547 20.0002 31.3563 19.107C31.4519 18.6829 31.5525 18.2594 31.6533 17.8361L31.6356 17.7903Z" fill="white"/>
<path d="M23.2295 20.9045C22.7893 20.8993 22.6388 20.8993 22.1248 20.9228L22.1043 20.8876C22.1502 20.6848 22.1987 20.489 22.2447 20.2864L22.3047 20.0152C22.4003 19.5872 22.4935 19.0965 22.5049 18.9456C22.5137 18.8542 22.5419 18.6281 22.2904 18.6281C22.1846 18.6281 22.0725 18.6804 21.9601 18.7326C21.8991 18.9574 21.774 19.5938 21.714 19.8825C21.5891 20.4948 21.5787 20.564 21.5227 20.8641L21.4857 20.9045C21.0351 20.8993 20.8784 20.8993 20.3591 20.9228L20.335 20.8824C20.4217 20.5177 20.5084 20.1537 20.5901 19.7898C20.8095 18.8078 20.8592 18.4321 20.9204 17.9354L20.9612 17.9003C21.4678 17.8309 21.5901 17.814 22.1401 17.6982L22.1846 17.7499L22.1031 18.0675C22.1936 18.01 22.2854 17.9525 22.3798 17.9003C22.6375 17.7734 22.9259 17.7329 23.0827 17.7329C23.3226 17.7329 23.5868 17.8023 23.6976 18.0857C23.8021 18.3392 23.7319 18.6516 23.5943 19.2696L23.5254 19.582C23.3824 20.2694 23.3596 20.3963 23.283 20.8641L23.2295 20.9045Z" fill="white"/>
<path d="M27.5038 17.2101C27.4249 17.5666 27.2016 17.8673 26.9095 18.015C26.6671 18.1385 26.3748 18.149 26.0714 18.149H25.8736L25.8914 18.0674C25.8914 18.0674 26.2512 16.4587 26.2499 16.4638L26.2601 16.3822L26.2677 16.3175L26.4107 16.3319C26.4107 16.3319 27.1543 16.3998 27.1735 16.4037C27.4668 16.5187 27.5907 16.8192 27.5038 17.2101ZM27.0294 15.5295C27.0282 15.5295 26.6645 15.5373 26.6645 15.5373C25.7167 15.547 25.3365 15.5445 25.1796 15.5243C25.1655 15.5935 25.14 15.7209 25.14 15.7215C25.14 15.7215 24.8018 17.3341 24.8018 17.3354C24.8018 17.3354 23.9894 20.7646 23.9512 20.9253C24.7777 20.9134 25.1184 20.9128 25.26 20.9291C25.2931 20.7671 25.4858 19.8119 25.4871 19.8098C25.4871 19.8098 25.6516 19.1061 25.6618 19.084C25.6618 19.084 25.7117 19.0094 25.7652 18.9807H25.8392C26.5524 18.9807 27.3597 18.9807 27.9912 18.5037C28.4199 18.1797 28.7145 17.6987 28.8458 17.1132C28.879 16.9683 28.9047 16.7971 28.9047 16.6246C28.9047 16.4037 28.8611 16.1795 28.7334 16.0026C28.4109 15.5432 27.7718 15.5373 27.0294 15.5295Z" fill="white"/>
<path d="M16.7775 18.1481C17.0672 17.9435 17.1041 17.6566 16.8578 17.5078C16.6118 17.3601 16.178 17.4064 15.8871 17.6111C15.595 17.8175 15.5606 18.1043 15.8055 18.2526C16.0517 18.401 16.4866 18.3545 16.7775 18.1481Z" fill="white"/>
<path fill-rule="evenodd" clip-rule="evenodd" d="M35.2876 17.7801L35.2445 17.729C34.7048 17.8434 34.6066 17.8611 34.1103 17.9291L34.0707 17.9635C34.0695 17.9722 34.0682 17.9806 34.067 17.9891L34.0644 17.9825C33.6919 18.8594 33.7046 18.67 33.4037 19.3573C33.4025 19.3259 33.401 19.3024 33.3998 19.273L33.3245 17.7801L33.2785 17.729C32.7109 17.8434 32.697 17.8611 32.1739 17.9291L32.1317 17.9635C32.1293 17.9839 32.1267 18.0035 32.1241 18.0245L32.1293 18.0297C32.1931 18.3746 32.179 18.2988 32.2441 18.8385C32.2734 19.1025 32.3143 19.3711 32.3436 19.6344C32.3971 20.0695 32.4251 20.2902 32.4876 20.9544C32.1343 21.5554 32.0502 21.7814 31.7133 22.308V22.3092L31.4723 22.7C31.4455 22.7418 31.4199 22.7678 31.3868 22.781C31.3485 22.7979 31.2962 22.8046 31.2272 22.8046H31.0436L30.8906 23.5075L31.5744 23.4971C31.971 23.4938 32.2223 23.2933 32.3588 23.0398L32.7773 22.2919L35.2876 17.7801Z" fill="white"/>
</svg>
