<svg width="41" height="42" fill="none" xmlns="http://www.w3.org/2000/svg"><g clip-path="url(#clip0)"><path d="M41 7.732H0v26.68h41V7.731z" fill="#fff"/><path d="M40.317 30.085H.684v3.64h39.633v-3.64z" fill="#FCB315"/><path d="M40.317 8.429H.684v3.64h39.633v-3.64zm-20.159 7.648l-2.09 10.005h-2.526l2.089-10.005h2.527zm10.63 6.46l1.33-3.757.765 3.757h-2.095zm2.82 3.545h2.337l-2.041-10.005h-2.156a1.15 1.15 0 00-1.076.733l-3.791 9.272h2.653l.527-1.495h3.241l.307 1.495zm-6.596-3.267c.011-2.64-3.563-2.787-3.54-3.966.008-.359.342-.74 1.072-.838.362-.048 1.36-.087 2.492.448l.443-2.123a6.67 6.67 0 00-2.364-.442c-2.498 0-4.255 1.359-4.269 3.307-.016 1.44 1.256 2.243 2.211 2.723.986.49 1.316.805 1.311 1.243-.007.671-.786.968-1.511.98-1.271.02-2.008-.352-2.595-.632l-.459 2.193c.591.277 1.681.518 2.81.53 2.655 0 4.391-1.343 4.4-3.423zm-10.465-6.738l-4.094 10.005h-2.67l-2.016-7.985c-.122-.491-.228-.672-.6-.879-.607-.338-1.61-.654-2.492-.851l.06-.29h4.3c.547 0 1.04.373 1.165 1.02l1.064 5.789 2.629-6.81h2.654z" fill="#0D357F"/></g><defs><clipPath id="clip0"><path fill="#fff" d="M0 0h41v42H0z"/></clipPath></defs></svg>