<svg width="44" height="44" fill="none" xmlns="http://www.w3.org/2000/svg"><path fill-rule="evenodd" clip-rule="evenodd" d="M22 31.625c2.613-2.337 4.262-5.775 4.262-9.625 0-3.85-1.65-7.219-4.262-9.625-2.269-2.063-5.363-3.369-8.662-3.369C6.188 9.006.344 14.85.344 22c0 7.15 5.843 12.925 12.994 12.925 3.3.069 6.393-1.237 8.662-3.3z" fill="#07A9E2"/><path fill-rule="evenodd" clip-rule="evenodd" d="M.344 22c0 7.15 5.843 12.925 12.994 12.925 3.368 0 6.393-1.237 8.662-3.369 2.613-2.337 4.262-5.775 4.262-9.625 0-3.85-1.65-7.15-4.262-9.556-2.269-2.063-5.363-3.369-8.662-3.369" fill="#009DDD"/><path fill-rule="evenodd" clip-rule="evenodd" d="M22 12.375c-2.269-2.063-5.363-3.369-8.663-3.369h-.618c-4.057 2.957-6.67 7.7-6.67 12.994a15.98 15.98 0 006.6 12.925h.62c3.368 0 6.393-1.237 8.662-3.369 2.613-2.337 4.263-5.775 4.263-9.625 0-3.85-1.582-7.15-4.194-9.556z" fill="#0284CC"/><path fill-rule="evenodd" clip-rule="evenodd" d="M30.731 9.006c-3.368 0-6.393 1.238-8.73 3.369-.482.412-.895.894-1.307 1.375h2.612c.344.412.688.894.963 1.375h-4.606c-.275.481-.55.894-.757 1.375h6.12c.205.481.412.894.55 1.375h-7.15c-.138.481-.276.894-.413 1.375h7.975c.206.894.275 1.788.275 2.75 0 1.444-.207 2.819-.688 4.125h-7.15c.138.481.344.894.55 1.375h6.119a8.805 8.805 0 01-.756 1.375H19.73c.275.481.62.962.963 1.375h2.612c-.412.481-.825.962-1.306 1.375 2.338 2.063 5.363 3.369 8.731 3.369a12.91 12.91 0 0012.925-12.925c0-7.219-5.775-13.063-12.925-13.063z" fill="#FF2957"/><path fill-rule="evenodd" clip-rule="evenodd" d="M30.731 9.006c-3.368 0-6.393 1.238-8.73 3.369-.482.412-.895.894-1.307 1.375h2.612c.344.412.688.894.963 1.375h-4.606c-.275.481-.55.894-.757 1.375h6.12c.205.481.412.894.55 1.375h-7.15c-.138.481-.276.894-.413 1.375h7.975c.206.894.275 1.788.275 2.75 0 1.444-.207 2.819-.688 4.125h-7.15c.138.481.344.894.55 1.375h6.119a8.805 8.805 0 01-.756 1.375H19.73c.275.481.62.962.963 1.375h2.612c-.412.481-.825.962-1.306 1.375 2.338 2.063 5.363 3.369 8.731 3.369a12.91 12.91 0 0012.925-12.925" fill="#ED1C2E"/><path fill-rule="evenodd" clip-rule="evenodd" d="M22 31.625c2.613-2.337 4.262-5.775 4.262-9.625 0-3.85-1.65-7.219-4.262-9.625v19.25z" fill="#0466B5"/><path fill-rule="evenodd" clip-rule="evenodd" d="M39.188 24.819c0-.206.206-.413.412-.413s.413.207.413.413a.444.444 0 01-.413.412.444.444 0 01-.413-.412zm.412.344c.206 0 .275-.138.275-.344 0-.206-.138-.275-.275-.275-.206 0-.344.137-.344.275 0 .137.206.344.344.344zm0-.207h-.069v-.343h.207l.068.068c0 .069 0 .069-.069.069l.07.137h-.07l-.068-.137H39.6v.206zm0-.206h.069v-.069H39.6v.069z" fill="#fff"/><path fill-rule="evenodd" clip-rule="evenodd" d="M22 12.375c-.481.412-.894.894-1.306 1.375h2.612c.344.412.688.894.963 1.375h-4.606c-.275.481-.55.894-.757 1.375h6.12c.205.481.412.894.55 1.375h-7.15c-.138.481-.276.894-.413 1.375h7.975c.206.894.275 1.788.275 2.75 0 1.444-.207 2.819-.688 4.125h-7.15c.138.481.344.894.55 1.375h6.119a8.805 8.805 0 01-.756 1.375H19.73c.275.481.62.962.963 1.375h2.612c-.412.481-.825.962-1.306 1.375 2.338 2.063 5.363 3.369 8.731 3.369h.62a15.98 15.98 0 006.6-12.925 15.98 15.98 0 00-6.6-12.925h-.62c-3.368-.138-6.393 1.168-8.73 3.231z" fill="#D1094B"/><path fill-rule="evenodd" clip-rule="evenodd" d="M11.687 25.231h-1.65L11 20.212l-2.2 5.02H7.356l-.275-5.02-.962 5.02H4.675l1.237-6.6h2.544l.138 4.124 1.787-4.125h2.613l-1.307 6.6z" fill="#fff"/><path fill-rule="evenodd" clip-rule="evenodd" d="M10.106 22.344l.962-2.132-.756 3.988c.069.344.138.756.275 1.1h1.1l1.238-6.6h-2.407c-.275 1.031-.48 2.2-.48 3.369.068.068.068.137.068.275zM29.7 25.162c-.481.138-.756.207-1.169.207-.825 0-1.237-.413-1.237-1.169 0-.137 0-.275.069-.481l.068-.55.07-.413.755-4.056h1.582l-.207 1.238h.825l-.206 1.237h-.825l-.412 2.2c0 .069-.07.206-.07.206 0 .275.207.413.55.413.207 0 .345 0 .413-.069l-.206 1.237zm4.744-5.225c-.138-.068-.138-.068-.207-.068-.068 0-.137 0-.137-.07h-.206c-.55 0-.894.207-1.375.895l.137-.825h-1.444l-.962 5.362h1.65c.55-3.3.825-3.85 1.581-3.85h.206l.207.069.55-1.513zm-11.138 1.65c0 .688.413 1.17 1.238 1.444.687.275.756.344.756.619 0 .344-.275.481-.963.481-.48 0-.962-.069-1.443-.206l-.206 1.237h.068l.275.07h.413c.412.068.687.068.893.068 1.72 0 2.544-.55 2.544-1.788 0-.756-.343-1.168-1.169-1.512-.687-.275-.756-.344-.756-.55 0-.275.275-.413.825-.413.275 0 .757 0 1.169.07l.206-1.238c-.412-.07-1.031-.07-1.444-.07-1.787 0-2.406.826-2.406 1.788zm-6.394 3.644h-1.306v-.55c-.413.413-.963.619-1.719.619-.894 0-1.444-.619-1.444-1.444 0-1.306 1.032-2.062 2.82-2.062h.687c.068-.207.068-.275.068-.344 0-.344-.275-.481-1.03-.481a6.93 6.93 0 00-1.307.137l-.206.069h-.138l.206-1.169c.825-.206 1.307-.275 1.925-.275 1.375 0 2.132.55 2.132 1.581 0 .275 0 .482-.138 1.1l-.344 1.925-.068.344-.07.275v.206l-.068.07zm-1.169-2.406H15.4c-.894 0-1.375.275-1.375.825 0 .344.206.55.55.55.687 0 1.168-.55 1.168-1.375zm6.464 2.269a6.78 6.78 0 01-1.65.206c-1.788 0-2.75-.825-2.75-2.406 0-1.857 1.168-3.163 2.818-3.163 1.307 0 2.132.756 2.132 1.925 0 .413-.07.757-.207 1.306h-3.23v.207c0 .619.48.962 1.374.962.619 0 1.1-.069 1.65-.344l-.137 1.307zm-.825-3.163v-.275c0-.412-.275-.687-.757-.687-.48 0-.893.343-1.03.962h1.787z" fill="#DCE5E5"/><path fill-rule="evenodd" clip-rule="evenodd" d="M39.462 22.825c-.275 1.788-1.512 2.544-3.162 2.544-1.788 0-2.544-1.1-2.544-2.475 0-1.856 1.237-3.163 3.162-3.163 1.65 0 2.544 1.1 2.544 2.406v.688zm-1.719-.688c0-.55-.206-1.03-.893-1.03-.825 0-1.307.962-1.307 1.855 0 .688.344 1.17.894 1.17.344 0 1.1-.482 1.238-1.307.068-.275.068-.481.068-.688z" fill="#fff"/><path fill-rule="evenodd" clip-rule="evenodd" d="M33.825 23.512c.069-.48.137-1.03.137-1.512v-.138c-.068.344-.137.688-.137 1.1-.069.138-.069.344 0 .55z" fill="#fff"/></svg>