<svg width="44" height="44" fill="none" xmlns="http://www.w3.org/2000/svg"><path d="M43.656 22c0 7.15-5.775 12.994-12.993 12.994-7.15 0-12.994-5.844-12.994-12.994 0-7.15 5.775-12.994 12.925-12.994 7.287 0 13.062 5.844 13.062 12.994z" fill="#FFB600"/><path d="M30.663 9.006c7.15 0 12.993 5.844 12.993 12.994 0 7.15-5.775 12.994-12.993 12.994-7.15 0-12.994-5.844-12.994-12.994" fill="#F7981D"/><path d="M30.662 9.006c7.15 0 12.994 5.844 12.994 12.994 0 7.15-5.775 12.994-12.994 12.994" fill="#FF8500"/><path d="M13.2 9.006C6.119 9.075.344 14.85.344 22c0 7.15 5.775 12.994 12.994 12.994 3.368 0 6.393-1.306 8.73-3.369.482-.413.894-.894 1.307-1.375h-2.681a15.85 15.85 0 01-.963-1.306h4.606a8.81 8.81 0 00.757-1.375h-6.119a8.197 8.197 0 01-.55-1.375h7.15c.413-1.306.688-2.681.688-4.125 0-.963-.138-1.857-.276-2.75h-7.974c.068-.482.206-.894.343-1.375h7.15a8.191 8.191 0 00-.55-1.375h-6.05c.207-.482.482-.894.757-1.375h4.606a6.539 6.539 0 00-1.031-1.375h-2.544A11.68 11.68 0 0122 12.512c-2.269-2.13-5.363-3.368-8.731-3.368 0-.138 0-.138-.069-.138z" fill="#FF5050"/><path d="M.344 22c0 7.15 5.775 12.994 12.994 12.994 3.368 0 6.393-1.307 8.73-3.37.482-.412.894-.893 1.307-1.374h-2.681a15.848 15.848 0 01-.963-1.306h4.606c.276-.413.55-.894.757-1.375h-6.119a8.2 8.2 0 01-.55-1.375h7.15c.413-1.307.688-2.682.688-4.125 0-.963-.138-1.857-.276-2.75h-7.974c.068-.482.206-.894.343-1.375h7.15a8.188 8.188 0 00-.55-1.375h-6.05c.207-.482.482-.894.757-1.375h4.606a6.536 6.536 0 00-1.031-1.375h-2.544A11.71 11.71 0 0122 12.512c-2.269-2.13-5.363-3.368-8.731-3.368H13.2" fill="#E52836"/><path d="M13.338 34.994c3.368 0 6.393-1.307 8.73-3.37.482-.412.895-.893 1.307-1.374h-2.681a15.871 15.871 0 01-.963-1.306h4.607a8.82 8.82 0 00.756-1.375h-6.119a8.191 8.191 0 01-.55-1.375h7.15c.413-1.307.688-2.682.688-4.125 0-.963-.138-1.857-.275-2.75h-7.975c.068-.482.206-.894.343-1.375h7.15a8.188 8.188 0 00-.55-1.375h-6.05c.207-.482.482-.894.757-1.375h4.606a6.536 6.536 0 00-1.031-1.375h-2.544A11.71 11.71 0 0122 12.512c-2.269-2.13-5.362-3.368-8.731-3.368H13.2" fill="#CB2026"/><path d="M17.944 25.3l.206-1.169c-.069 0-.206.069-.344.069-.48 0-.55-.275-.48-.412l.412-2.407h.756l.206-1.306h-.687l.137-.825h-1.375s-.825 4.538-.825 5.087c0 .826.481 1.17 1.1 1.17.413 0 .756-.138.894-.207zm.481-2.2c0 1.925 1.306 2.406 2.406 2.406 1.031 0 1.444-.206 1.444-.206l.275-1.306s-.756.343-1.444.343c-1.512 0-1.237-1.1-1.237-1.1h2.818s.207-.893.207-1.237c0-.894-.482-1.994-1.994-1.994-1.444-.137-2.475 1.375-2.475 3.094zm2.406-1.994c.756 0 .619.894.619.963h-1.513c0-.069.138-.963.894-.963zm8.732 4.194l.274-1.512s-.687.343-1.168.343c-.963 0-1.375-.756-1.375-1.581 0-1.65.825-2.544 1.787-2.544.688 0 1.238.413 1.238.413l.206-1.444s-.825-.344-1.581-.344c-1.581 0-3.163 1.375-3.163 3.988 0 1.718.825 2.887 2.475 2.887.55 0 1.306-.206 1.306-.206zm-19.182-5.431c-.962 0-1.65.275-1.65.275l-.206 1.169s.619-.275 1.512-.275c.482 0 .894.068.894.48 0 .276-.069.345-.069.345h-.618c-1.17 0-2.475.48-2.475 2.062 0 1.238.825 1.512 1.306 1.512.962 0 1.375-.618 1.444-.618l-.07.55h1.238l.55-3.782c0-1.65-1.375-1.718-1.856-1.718zm.275 3.093c0 .207-.137 1.307-.962 1.307-.413 0-.55-.344-.55-.55 0-.344.206-.825 1.237-.825.206.069.275.069.275.069zm2.887 2.475c.344 0 2.063.07 2.063-1.787 0-1.719-1.65-1.375-1.65-2.063 0-.343.275-.48.756-.48.206 0 .962.068.962.068l.207-1.238s-.482-.137-1.307-.137c-1.03 0-2.062.412-2.062 1.787 0 1.582 1.719 1.444 1.719 2.063 0 .412-.482.481-.825.481a4.495 4.495 0 01-1.238-.206l-.206 1.237c.069.138.412.275 1.581.275zm27.431-6.668l-.275 1.856s-.55-.688-1.306-.688c-1.237 0-2.337 1.513-2.337 3.3 0 1.1.55 2.27 1.718 2.27.825 0 1.307-.55 1.307-.55l-.07.48h1.376l1.031-6.6-1.444-.068zm-.618 3.643c0 .757-.344 1.72-1.1 1.72-.482 0-.757-.413-.757-1.1 0-1.1.482-1.788 1.1-1.788.482 0 .757.343.757 1.168zM2.887 25.369l.825-4.95.138 4.95h.962l1.788-4.95-.756 4.95h1.443l1.1-6.6H6.12l-1.375 4.056-.07-4.056H2.682l-1.1 6.6h1.306zm21.313 0c.413-2.269.481-4.125 1.444-3.782.137-.893.344-1.237.481-1.58h-.275c-.619 0-1.1.824-1.1.824l.137-.756h-1.306l-.893 5.363H24.2v-.07zm8.525-5.5c-.963 0-1.65.275-1.65.275l-.206 1.169s.618-.275 1.512-.275c.481 0 .894.068.894.48 0 .276-.069.345-.069.345h-.619c-1.168 0-2.475.48-2.475 2.062 0 1.238.825 1.512 1.307 1.512.962 0 1.375-.618 1.443-.618l-.068.55h1.237l.55-3.782c.069-1.65-1.375-1.718-1.856-1.718zm.344 3.093c0 .207-.138 1.307-.963 1.307-.412 0-.55-.344-.55-.55 0-.344.206-.825 1.238-.825.206.069.206.069.275.069zm2.681 2.407c.412-2.269.481-4.125 1.444-3.782.137-.893.343-1.237.48-1.58H37.4c-.619 0-1.1.824-1.1.824l.137-.756h-1.306l-.894 5.363h1.513v-.07z" fill="#fff"/><path d="M15.813 24.337c0 .826.48 1.17 1.1 1.17.48 0 .893-.138 1.03-.207l.207-1.169c-.069 0-.206.069-.344.069-.481 0-.55-.275-.481-.412l.413-2.407h.756l.206-1.306h-.688l.138-.825m.962 3.85c0 1.925.62 2.406 1.72 2.406 1.03 0 1.443-.206 1.443-.206l.275-1.306s-.756.343-1.444.343c-1.512 0-1.237-1.1-1.237-1.1h2.818s.207-.893.207-1.237c0-.894-.482-1.994-1.994-1.994-1.444-.137-1.788 1.375-1.788 3.094zm1.72-1.994c.755 0 .893.894.893.963h-1.788c0-.069.138-.963.894-.963zm8.731 4.194l.274-1.512s-.687.343-1.168.343c-.963 0-1.375-.756-1.375-1.581 0-1.65.825-2.544 1.787-2.544.688 0 1.238.413 1.238.413l.206-1.444s-.825-.344-1.581-.344c-1.581 0-2.475 1.375-2.475 3.988 0 1.718.137 2.887 1.787 2.887.55 0 1.306-.206 1.306-.206zM8.525 21.381s.619-.275 1.512-.275c.482 0 .894.069.894.481 0 .276-.069.344-.069.344h-.618c-1.17 0-2.475.482-2.475 2.063 0 1.237.825 1.512 1.306 1.512.962 0 1.375-.619 1.444-.619l-.07.55h1.238l.55-3.78c0-1.582-1.375-1.65-1.925-1.65L8.525 21.38zm2.819 1.581c0 .207-.825 1.307-1.65 1.307-.413 0-.55-.344-.55-.55 0-.344.206-.825 1.237-.825.206.069.963.069.963.069zm.687 2.338s.413.137 1.582.137c.343 0 2.062.07 2.062-1.787 0-1.719-1.65-1.375-1.65-2.063 0-.343.275-.48.756-.48.207 0 .963.068.963.068l.206-1.238s-.481-.137-1.306-.137c-1.031 0-1.375.412-1.375 1.787 0 1.582 1.031 1.444 1.031 2.063 0 .412-.481.481-.825.481M40.7 20.625s-.55-.688-1.307-.688c-1.237 0-1.65 1.513-1.65 3.3 0 1.1-.137 2.27 1.032 2.27.825 0 1.306-.55 1.306-.55l-.069.48h1.375l1.031-6.6-1.718 1.788zm-.07 1.788c0 .756-.618 1.718-1.374 1.718-.481 0-.757-.412-.757-1.1 0-1.1.482-1.787 1.1-1.787.482 0 1.032.343 1.032 1.169zM2.887 25.369l.825-4.95.138 4.95h.962l1.788-4.95-.756 4.95h1.443l1.1-6.6H6.67l-1.925 4.056-.07-4.056H3.92l-2.338 6.6h1.306zm19.869 0H24.2c.412-2.269.48-4.125 1.443-3.782.138-.893.344-1.237.482-1.58h-.275c-.62 0-1.1.824-1.1.824l.137-.756m5.982 1.306s.618-.275 1.512-.275c.481 0 .894.069.894.481 0 .276-.069.344-.069.344h-.619c-1.168 0-2.475.482-2.475 2.063 0 1.237.825 1.512 1.307 1.512.962 0 1.375-.619 1.443-.619l-.068.55h1.237l.55-3.78c0-1.582-1.375-1.65-1.925-1.65L30.87 21.38zm2.818 1.581c0 .207-.825 1.307-1.65 1.307-.412 0-.55-.344-.55-.55 0-.344.207-.825 1.238-.825.275.069.962.069.962.069zm.619 2.407h1.443c.413-2.269.482-4.125 1.444-3.782.138-.893.344-1.237.481-1.58H37.4c-.618 0-1.1.824-1.1.824l.138-.756" fill="#DCE5E5"/></svg>