<svg width="41" height="42" fill="none" xmlns="http://www.w3.org/2000/svg"><path d="M9.483 6.798c-2.387 0-4.602 1.848-5.153 4.298L.124 29.82c-.31 1.38-.032 2.769.765 3.813.784 1.025 1.995 1.614 3.32 1.614h27.287c2.386 0 4.601-1.847 5.155-4.296l4.205-18.726c.311-1.379.032-2.771-.766-3.813-.784-1.026-1.993-1.614-3.319-1.614H9.483z" fill="#fff"/><path d="M9.865 9.833h8.718c1.217 0 1.974 1.015 1.69 2.266l-4.06 17.849c-.285 1.25-1.503 2.264-2.72 2.264H4.775c-1.219 0-1.975-1.014-1.69-2.264l4.06-17.85c.284-1.25 1.501-2.265 2.72-2.265z" fill="#ED1C24"/><path d="M17.86 9.833h8.717c1.218 0 1.974 1.015 1.688 2.266l-4.059 17.849c-.285 1.25-1.502 2.264-2.722 2.264h-8.716c-1.22 0-1.975-1.014-1.69-2.264l4.059-17.85c.286-1.25 1.504-2.265 2.722-2.265z" fill="#00569E"/><path d="M27.49 9.833h8.716c1.218 0 1.975 1.015 1.689 2.266l-4.058 17.849c-.286 1.25-1.504 2.264-2.722 2.264h-8.718c-1.219 0-1.975-1.014-1.69-2.264l4.059-17.85c.285-1.25 1.504-2.265 2.723-2.265z" fill="#00898E"/><path fill-rule="evenodd" clip-rule="evenodd" d="M28.786 23.01l-.823 3.6h.284l-.172.748h-.284l-.053.228h-1.01l.052-.228h-2.053l.16-.69.21-.002.835-3.656.166-.739h1.032l-.082.375s.26-.205.516-.273c.256-.069 1.75-.096 1.75-.096l-.174.733h-.354zm-1.818 0l-.21.922s.295-.143.46-.188c.166-.046.418-.063.418-.063l.152-.67h-.82zm-.316 1.38l-.219.955s.301-.164.467-.21a3.41 3.41 0 01.419-.074l.155-.67h-.822zm-.51 2.232h.822l.185-.811h-.822l-.184.81zm3.229-4.34h1.1l.013.419c-.007.068.052.102.18.104h.186l-.166.694h-.595c-.515.038-.71-.19-.697-.443l-.02-.774z" fill="#fff"/><path fill-rule="evenodd" clip-rule="evenodd" d="M29.558 25.565h-1.05l.14-.618h1.199l.134-.566h-1.184l.16-.694h3.293l-.16.694h-1.107l-.133.566h1.107l-.142.618H30.62l-.198.26h.486l.172.78c.014.076.022.127.047.158.026.028.174.042.258.042h.147l-.174.76h-.374c-.057 0-.144-.003-.261-.014-.114-.009-.199-.075-.277-.112a.406.406 0 01-.214-.265l-.167-.776-.493.767c-.16.238-.381.422-.775.422h-.766l.155-.673h.293a.45.45 0 00.21-.064.331.331 0 00.154-.136l.716-1.149zm-11.6-1.684h2.777l-.16.68H19.46l-.136.579h1.134l-.165.703H19.16l-.22.937c-.026.106.277.12.387.12l.563-.077-.181.772h-1.282c-.102 0-.18-.012-.293-.04a.327.327 0 01-.213-.153c-.05-.073-.126-.137-.087-.3l.292-1.247h-.632l.168-.715h.633l.134-.58h-.63l.159-.679zm1.796-1.221h1.14l-.165.708h-1.557l-.16.153c-.067.07-.095.04-.185.091a1.051 1.051 0 01-.506.136h-.499l.16-.682h.15c.127 0 .213-.012.256-.041.046-.03.098-.104.154-.22l.253-.534h1.135l-.176.39zm1.606-.387h.972l-.112.501s.292-.251.502-.335c.21-.085.69-.157.69-.157l1.568-.01-.423 1.826a2.126 2.126 0 01-.223.608.66.66 0 01-.252.25.971.971 0 01-.357.123c-.106.01-.264.013-.484.015H21.73l-.338 1.447c-.035.143-.05.21-.021.248a.19.19 0 00.15.074l.663-.065-.18.792h-.749c-.236 0-.41-.003-.53-.014-.117-.01-.237 0-.32-.066-.075-.061-.185-.142-.187-.227.002-.08.025-.21.064-.387l1.079-4.623zm2.174 1.848h-1.591l-.078.327h1.378c.162-.017.196.004.209-.002l.082-.326zm-1.522-.297s.292-.292.82-.387c.12-.022.879-.016.879-.016l.09-.39h-1.604l-.185.793z" fill="#fff"/><path fill-rule="evenodd" clip-rule="evenodd" d="M24.37 25.224l-.062.44c-.033.135-.057.24-.153.33-.1.092-.22.188-.511.188l-.536.021.023.495c.004.144.038.13.061.152.026.024.05.035.074.041l.171-.006.51-.032-.167.727h-.59c-.415 0-.721-.013-.827-.09-.104-.07-.123-.15-.128-.286l-.079-1.936h.943l.011.396h.226c.08 0 .13-.008.162-.029.027-.02.045-.053.058-.103l.071-.308h.742z" fill="#fff"/><path d="M10.896 15.535l-.64 3.02c-.13.576-.225.992-.545 1.258a.977.977 0 01-.644.228c-.397 0-.63-.203-.67-.587l-.008-.13.123-.779s.636-2.605.749-2.952a.363.363 0 01.01-.04c-1.236.016-1.457.004-1.472-.019l-.04.19-.648 2.939-.056.248-.106.813c0 .243.046.44.14.605.294.53 1.137.61 1.613.61.614 0 1.189-.137 1.58-.377.673-.41.851-1.052 1.01-1.618l.072-.291s.655-2.708.767-3.06l.009-.04c-.894.014-1.16.002-1.244-.018zm3.619 5.369c-.44-.005-.592-.005-1.105.019l-.02-.035c.044-.203.094-.399.139-.602l.061-.27c.096-.429.189-.92.2-1.07.01-.092.037-.318-.214-.318-.107 0-.22.052-.332.105-.06.224-.186.86-.244 1.15-.127.612-.136.681-.192.981l-.037.04a15.333 15.333 0 00-1.128.019l-.024-.04c.087-.365.174-.73.255-1.093.22-.982.27-1.358.33-1.855l.042-.035c.507-.07.628-.086 1.18-.202l.044.052-.083.317c.092-.057.183-.114.278-.167.258-.127.546-.167.703-.167.24 0 .504.07.614.353.106.253.036.566-.102 1.184l-.07.312a22.85 22.85 0 00-.241 1.282l-.054.04zm1.782.006a15.16 15.16 0 00-1.172.018l-.015-.02-.015-.02c.066-.262.102-.353.136-.445a3.24 3.24 0 00.124-.448 11.619 11.619 0 00.238-1.372l.021-.017.022-.018c.262-.038.43-.062.6-.09.17-.029.344-.06.618-.113l.018.047-.152.643c-.05.213-.098.428-.147.642-.1.452-.137.623-.16.74-.023.116-.03.178-.068.412l-.024.021-.024.02zm3.939-1.552c.154-.692.037-1.015-.115-1.211-.23-.3-.631-.397-1.05-.397-.252 0-.85.028-1.319.473-.334.316-.492.748-.585 1.164-.094.421-.204 1.188.477 1.465.214.093.515.122.71.122.503 0 1.016-.144 1.4-.566.3-.334.434-.842.482-1.05zm-1.145-.052c-.026.116-.124.554-.26.738-.091.133-.205.214-.327.214-.035 0-.252 0-.257-.329-.002-.161.03-.328.07-.513.117-.52.253-.957.6-.957.274 0 .291.323.174.848zm10.809.798c-.09.131-.303.212-.426.212-.034 0-.25 0-.256-.326a2.29 2.29 0 01.07-.51c.116-.515.253-.95.6-.95.226 0 .335.227.305.596l-.055.256c-.037.16-.08.319-.119.479a1.071 1.071 0 01-.118.243zm1.736-2.314c-.549.103-.693.126-1.219.2l-.04.034-.018.132a.749.749 0 00-.382-.33c-.235-.093-.786.028-1.254.469-.334.315-.492.744-.585 1.156-.095.418-.205 1.18.477 1.455.214.091.412.119.607.108.21-.01.4-.123.58-.277l-.048.196.03.04c.492-.023.642-.023 1.172-.016l.048-.04c.076-.465.15-.917.352-1.81.096-.424.196-.848.297-1.27l-.017-.047zm-8.406 3.114c-.44-.005-.591-.005-1.105.019l-.02-.035c.045-.203.094-.399.14-.602l.06-.27c.095-.429.189-.92.2-1.07.009-.092.037-.318-.215-.318-.105 0-.217.052-.33.105-.06.224-.186.86-.246 1.15-.125.612-.135.681-.191.981l-.037.04c-.45-.005-.608-.005-1.127.019l-.024-.04c.087-.365.173-.73.255-1.093.22-.982.27-1.358.33-1.855l.041-.035c.507-.07.63-.086 1.18-.202l.044.052-.082.317c.09-.057.182-.114.277-.167.258-.127.546-.167.703-.167.24 0 .504.07.615.353.104.253.034.566-.104 1.184l-.069.312c-.143.687-.165.814-.242 1.282l-.053.04zm4.274-3.694c-.08.357-.302.657-.595.805-.242.123-.534.134-.838.134h-.197l.017-.082.359-1.603.01-.082.008-.065.143.015s.743.068.762.072c.294.115.418.415.33.806zm-.475-1.68l-.364.007c-.948.01-1.328.007-1.485-.013l-.04.198-.338 1.613-.85 3.59c.826-.012 1.166-.012 1.308.004l.227-1.12s.165-.703.175-.725c0 0 .05-.075.103-.103h.074c.713 0 1.52 0 2.152-.477.429-.324.724-.805.855-1.39a2.23 2.23 0 00.059-.49c0-.22-.044-.444-.172-.621-.322-.46-.961-.466-1.704-.473zm-10.252 2.618c.29-.204.327-.491.08-.64-.245-.148-.679-.102-.97.103-.292.206-.326.493-.082.642.247.148.682.102.973-.105z" fill="#fff"/><path fill-rule="evenodd" clip-rule="evenodd" d="M35.288 17.78l-.043-.051c-.54.114-.638.132-1.135.2l-.04.035-.003.025-.003-.006c-.372.876-.36.687-.66 1.374l-.004-.084-.075-1.493-.047-.051c-.567.114-.581.132-1.104.2l-.042.035-.008.06.005.006c.064.345.05.269.115.808.03.264.07.533.1.796.053.436.081.656.144 1.32-.354.601-.438.827-.775 1.354v.001l-.24.391c-.027.042-.053.068-.086.081a.406.406 0 01-.16.024h-.183l-.153.703.683-.01c.397-.004.648-.205.785-.458l.418-.748 2.51-4.512z" fill="#fff"/></svg>