<svg width="46" height="47" viewBox="0 0 46 47" fill="none" xmlns="http://www.w3.org/2000/svg">
<path d="M29.8382 42.924H14.1618C13.7133 42.924 13.2967 42.6921 13.0611 42.3107L4.54662 28.5371C1.80739 28.3362 0 26.3782 0 23.5372C0 20.5365 2.01633 18.5198 5.01741 18.5198H38.9826C41.9837 18.5198 44 20.5364 44 23.5372C44 26.3782 42.1926 28.3362 39.4534 28.5371L30.9389 42.3107C30.7033 42.6922 30.2867 42.924 29.8382 42.924ZM14.8834 40.3358H29.1166L37.6207 26.579C37.8563 26.1976 38.2729 25.9657 38.7214 25.9657H38.9826C40.549 25.9657 41.4118 25.103 41.4118 23.5372C41.4118 21.9707 40.549 21.108 38.9826 21.108H5.01741C3.45095 21.108 2.58821 21.9707 2.58821 23.5372C2.58821 25.103 3.45095 25.9657 5.01741 25.9657C5.06126 25.9657 5.10434 25.9677 5.14713 25.9725C5.62196 25.9198 6.11029 26.1436 6.37927 26.579L14.8834 40.3358Z" fill="#FCD51E"/>
<path d="M22.4864 36.6026C21.9145 36.6026 21.4512 36.1388 21.4512 35.5674V26.9453C21.4512 26.3737 21.9145 25.91 22.4864 25.91C23.0583 25.91 23.5217 26.3738 23.5217 26.9453V35.5674C23.5218 36.1389 23.0583 36.6026 22.4864 36.6026Z" fill="#FCD51E"/>
<path d="M17.1866 36.9172C16.8408 36.9172 16.5031 36.744 16.307 36.4291L10.9283 27.7949C10.6257 27.3096 10.7743 26.6713 11.2596 26.3687C11.7442 26.0674 12.3835 26.215 12.6854 26.7003L18.0641 35.3345C18.3667 35.8199 18.2181 36.4581 17.7329 36.7607C17.5627 36.8666 17.3736 36.9172 17.1866 36.9172Z" fill="#FCD51E"/>
<path d="M26.8101 36.8984C26.6268 36.8984 26.4411 36.8484 26.2738 36.744C25.7977 36.4474 25.652 35.8212 25.9486 35.3447L31.3273 26.7105C31.6242 26.234 32.2501 26.0878 32.7269 26.3857C33.2031 26.6822 33.3487 27.3084 33.0522 27.7849L27.6735 36.4191C27.481 36.7285 27.1494 36.8984 26.8101 36.8984Z" fill="#FCD51E"/>
<path d="M18.5002 20.7691C17.7854 20.7691 17.2061 20.1894 17.2061 19.475V12.4335C17.2061 9.37921 19.364 7.07568 22.2255 7.07568H22.7465C25.7017 7.07568 27.7659 9.13991 27.7659 12.0951V19.1366C27.7659 19.851 27.1866 20.4307 26.4718 20.4307C25.757 20.4307 25.1777 19.851 25.1777 19.1366V12.0951C25.1777 10.5725 24.2688 9.6639 22.7465 9.6639H22.2255C20.5549 9.6639 19.7943 11.0996 19.7943 12.4335V19.4749C19.7943 20.1895 19.215 20.7691 18.5002 20.7691Z" fill="#FCD51E"/>
<circle cx="35.5" cy="10.5" r="10.5" fill="#FF8500"/>
<path d="M35.808 16C35.6693 16 35.552 15.9573 35.456 15.872C35.36 15.776 35.312 15.6587 35.312 15.52V4.656L33.408 5.28C33.3333 5.312 33.264 5.328 33.2 5.328C33.0613 5.328 32.944 5.28533 32.848 5.2C32.7627 5.104 32.72 4.98667 32.72 4.848C32.72 4.752 32.7413 4.66133 32.784 4.576C32.8373 4.49067 32.9173 4.42667 33.024 4.384L35.472 3.568C35.5253 3.54667 35.584 3.53067 35.648 3.52C35.712 3.49867 35.7653 3.488 35.808 3.488C35.9467 3.488 36.0587 3.536 36.144 3.632C36.24 3.71733 36.288 3.82933 36.288 3.968V15.52C36.288 15.6587 36.24 15.776 36.144 15.872C36.0587 15.9573 35.9467 16 35.808 16Z" fill="black"/>
</svg>
