<svg width="40" height="40" viewBox="0 0 40 40" fill="none" xmlns="http://www.w3.org/2000/svg">
<path d="M34.375 4.375H5.625C4.93359 4.375 4.375 4.93359 4.375 5.625V34.375C4.375 35.0664 4.93359 35.625 5.625 35.625H34.375C35.0664 35.625 35.625 35.0664 35.625 34.375V5.625C35.625 4.93359 35.0664 4.375 34.375 4.375ZM33.125 33.125H25.9336V23.5234H29.9961L30.6055 18.8086H25.9336V15.7969C25.9336 14.4297 26.3125 13.5 28.2695 13.5H30.7656V9.28125C30.332 9.22266 28.8516 9.09375 27.125 9.09375C23.5234 9.09375 21.0586 11.293 21.0586 15.3281V18.8047H16.9883V23.5195H21.0625V33.125H6.875V6.875H33.125V33.125Z" fill="#FCD51E"/>
</svg>
