<svg width="182" height="110" viewBox="0 0 182 110" fill="none" xmlns="http://www.w3.org/2000/svg">
<path d="M99.9875 109.312C83.7923 107.637 68.6455 101.116 55.2609 90.0174C53.7886 88.7891 50.844 86.0423 48.7248 83.8984L44.8879 80.0127L37.9057 84.5907C34.0911 87.0919 27.2873 91.536 22.8035 94.4615C18.3196 97.387 11.4489 101.898 7.52279 104.466C3.59666 107.034 0.272834 109.201 0.116682 109.245C-0.173316 109.357 -0.396392 110.049 5.62664 91.5583C15.732 60.4721 15.152 62.5044 14.9289 58.9536C14.8174 57.234 13.9027 53.7502 8.34816 33.9417C4.80127 21.3018 1.92359 10.8951 1.96821 10.8727C1.99052 10.8281 11.8504 17.818 23.8519 26.3935L45.691 42.0036L48.4571 39.3684C56.7332 31.4852 65.9239 25.3215 75.4269 21.2571C76.81 20.6765 76.8546 20.6542 76.7208 19.9395C76.6539 19.5375 75.7839 15.0265 74.8023 9.93478C73.7985 4.82075 72.9954 0.599998 72.9954 0.533002C72.9954 0.466006 74.6239 0.28735 76.6316 0.131026C86.2684 -0.583599 97.0206 1.6496 105.921 6.22767C110.584 8.63953 114.086 11.0737 117.967 14.6245C119.551 16.0538 119.596 16.0984 121.67 16.5004C141.77 20.5202 160.619 33.0931 174.361 51.6733C177.885 56.4524 182.235 63.487 181.99 64.0899C181.789 64.6036 177.952 70.3206 176.279 72.5984C170.479 80.437 162.181 88.6551 154.552 94.1042C149.131 97.9676 142.617 101.518 136.193 104.154L133.493 105.248L132.043 103.439C126.11 95.9131 120.8 85.3053 118.525 76.4395C117.254 71.4595 117.053 69.8962 117.053 64.0899C117.053 59.4449 117.12 58.3729 117.566 56.0504C117.856 54.5765 118.168 53.2812 118.257 53.1919C118.414 53.0356 126.199 54.8445 126.444 55.1125C126.511 55.1795 126.4 55.9611 126.221 56.8767C124.035 67.4844 126.757 78.8291 134.631 91.9603C135.501 93.3895 136.349 94.5731 136.483 94.5731C136.929 94.5731 142.595 91.603 144.982 90.1067C152.053 85.685 159.281 79.4767 164.858 73.0227C166.732 70.8342 170.658 65.7425 171.684 64.1793C172.063 63.5986 172.041 63.5763 169.899 60.3828C157.363 41.6909 139.717 29.0957 120.332 25.0312C115.291 23.9816 112.324 23.6913 106.234 23.6913C100.166 23.6913 97.5337 23.937 92.2914 25.0089C80.6246 27.3761 69.0916 33.0708 59.1201 41.3783C55.3948 44.4824 50.3979 49.6411 45.691 55.2688C43.2818 58.1496 41.2072 60.5391 41.1179 60.5838C40.9172 60.6508 34.7826 55.5814 34.6711 55.2464C34.6264 55.1348 35.8087 53.6162 37.281 51.8743C38.7757 50.1101 39.9803 48.6362 39.9803 48.5692C39.958 48.5022 38.9541 47.7652 37.7272 46.8943C36.478 46.0457 35.318 45.197 35.1172 45.0407C34.8941 44.8844 32.8865 43.4328 30.6111 41.8249C28.3357 40.1947 24.3427 37.3362 21.7104 35.4603C19.1004 33.5621 16.9143 32.0658 16.8696 32.0881C16.8473 32.1328 18.0073 36.4429 19.4796 41.6462C23.785 56.966 23.9411 57.8146 23.4727 62.3704C23.1381 65.5638 23.0265 65.9882 18.9889 78.3601C17.1373 83.9878 15.665 88.6328 15.7097 88.6551C15.7543 88.6998 17.985 87.2929 20.6842 85.5287C29.2057 79.9457 36.2995 75.3453 40.1587 72.8217C45.5795 69.2933 48.5017 66.8368 55.2609 60.0702C61.574 53.7279 64.1616 51.4947 68.3555 48.7255C79.1523 41.6239 91.5999 37.0905 104.672 35.5049C107.884 35.1253 117.12 34.9243 121.67 35.1476L124.303 35.2816L121.604 38.7431C117.811 43.6115 116.584 45.867 114.934 50.8024C111.744 60.3158 111.944 70.8342 115.491 81.5089C117.923 88.8115 121.001 94.6178 126.824 102.814C128.162 104.712 129.3 106.387 129.344 106.521C129.456 106.789 121.804 108.397 117.499 109C114.644 109.424 102.999 109.603 99.9875 109.312ZM114.197 100.647L114.911 100.491L114.22 99.3745C111.877 95.6227 108.821 88.9678 107.237 84.1887C105.051 77.5338 104.137 71.9508 104.137 64.9832C104.137 59.8915 104.382 57.368 105.364 52.9239C105.721 51.249 107.505 45.666 108.107 44.2814C108.353 43.7678 107.884 43.7678 104.003 44.3261C94.366 45.6883 85.22 48.8148 77.1 53.4822C71.0324 56.966 68.8462 58.7302 61.0609 66.4348C57.3801 70.0749 53.9002 73.4247 53.3202 73.8937C52.7179 74.3627 52.2494 74.8763 52.2494 75.0326C52.2494 75.3676 58.2278 81.2409 60.7263 83.3178C73.04 93.6352 86.7592 99.4415 102.107 100.826C104.516 101.027 113.037 100.915 114.197 100.647ZM88.5438 16.9917C92.983 15.9644 98.6045 15.1828 102.776 15.0042L104.114 14.9595L102.486 14.1109C98.136 11.8553 92.6707 10.0688 87.8299 9.28715C84.06 8.70652 83.2792 8.63953 83.3907 8.92984C83.4353 9.0415 83.8369 11.096 84.283 13.4632C85.0638 17.5723 85.1307 17.7957 85.5769 17.684C85.8223 17.617 87.183 17.3043 88.5438 16.9917Z" fill="#FCFCFD"/>
<path d="M142.62 69.6618C140.746 69.1656 139.234 68.2635 137.608 66.6398C135.102 64.1816 134.132 61.6558 134.29 58.0926C134.47 54.4843 135.78 51.8682 138.534 49.6356C143.139 45.9371 149.596 46.2979 153.84 50.5377C160.026 56.7169 157.227 67.1585 148.716 69.6618C147.203 70.1128 144.268 70.1128 142.62 69.6618ZM147.271 60.8665C149.348 59.5585 148.445 56.1531 145.961 55.8825C143.41 55.6344 141.875 58.6564 143.681 60.3929C144.81 61.4754 146.052 61.6332 147.271 60.8665Z" fill="#FCFCFD"/>
</svg>
