<svg width="126" height="76" viewBox="0 0 126 76" fill="none" xmlns="http://www.w3.org/2000/svg">
<path d="M68.9283 0.0980851C57.7638 1.25271 47.322 5.74805 38.0952 13.3994C37.0802 14.2461 35.0503 16.1397 33.5894 17.6176L30.9443 20.2963L26.131 17.1404C23.5013 15.4161 18.811 12.3525 15.72 10.3358C12.629 8.31902 7.89252 5.20923 5.18597 3.4388C2.47942 1.66838 0.188077 0.175064 0.0804302 0.144272C-0.119486 0.0672989 -0.273267 -0.40995 3.87883 12.3371C10.8451 33.767 10.4453 32.366 10.2915 34.8138C10.2146 35.9992 9.58412 38.4009 5.75496 52.0562C3.30984 60.7698 1.32606 67.9439 1.35682 67.9593C1.3722 67.9901 8.16933 63.1714 16.4428 57.2597L31.498 46.4986L33.4048 48.3152C39.1101 53.7497 45.4459 57.9987 51.997 60.8006C52.9504 61.2009 52.9812 61.2163 52.8889 61.7089C52.8428 61.986 52.2431 65.0958 51.5664 68.6059C50.8744 72.1313 50.3208 75.041 50.3208 75.0872C50.3208 75.1333 51.4434 75.2565 52.8274 75.3643C59.4708 75.8569 66.883 74.3174 73.0189 71.1614C76.2329 69.4988 78.6473 67.8207 81.3231 65.3729C82.4149 64.3876 82.4457 64.3568 83.8759 64.0797C97.7316 61.3086 110.726 52.6412 120.199 39.8326C122.629 36.5381 125.627 31.6886 125.458 31.273C125.32 30.9189 122.675 26.9778 121.522 25.4075C117.523 20.0038 111.803 14.3385 106.543 10.5821C102.806 7.91874 98.3159 5.47094 93.887 3.65433L92.0263 2.89997L91.0267 4.14696C86.9361 9.33508 83.2761 16.6477 81.7075 22.7595C80.831 26.1926 80.6926 27.2703 80.6926 31.273C80.6926 34.4751 80.7387 35.2141 81.0463 36.8152C81.2462 37.8312 81.4615 38.7241 81.523 38.7857C81.6307 38.8935 86.9976 37.6465 87.1668 37.4618C87.2129 37.4156 87.136 36.8767 87.013 36.2456C85.5059 28.9329 87.3821 21.1123 92.8105 12.06C93.4103 11.0747 93.9947 10.2588 94.0869 10.2588C94.3945 10.2588 98.3005 12.3063 99.946 13.3378C104.821 16.386 109.803 20.6658 113.648 25.115C114.94 26.6237 117.646 30.1337 118.354 31.2114C118.615 31.6117 118.6 31.627 117.123 33.8285C108.481 46.7142 96.3168 55.3969 82.9532 58.1988C79.4777 58.9224 77.4324 59.1225 73.2342 59.1225C69.0513 59.1225 67.2367 58.9532 63.6229 58.2142C55.5801 56.5824 47.6296 52.6566 40.7556 46.9297C38.1874 44.7898 34.7427 41.2335 31.498 37.354C29.8371 35.368 28.4069 33.7208 28.3454 33.69C28.207 33.6438 23.978 37.1385 23.9012 37.3694C23.8704 37.4464 24.6854 38.4932 25.7004 39.694C26.7307 40.9102 27.5612 41.9263 27.5612 41.9725C27.5458 42.0187 26.8538 42.5267 26.008 43.1271C25.1468 43.7121 24.3471 44.2971 24.2087 44.4049C24.0549 44.5127 22.6709 45.5133 21.1023 46.6218C19.5338 47.7456 16.7811 49.7162 14.9665 51.0094C13.1672 52.3179 11.6602 53.3494 11.6294 53.334C11.614 53.3032 12.4137 50.332 13.4287 46.745C16.3966 36.184 16.5043 35.599 16.1813 32.4584C15.9507 30.2569 15.8738 29.9644 13.0903 21.4356C11.8139 17.556 10.799 14.3539 10.8297 14.3385C10.8605 14.3077 12.3983 15.2776 14.2591 16.4938C20.1335 20.3425 25.0238 23.5139 27.6842 25.2535C31.4211 27.6859 33.4356 29.3794 38.0952 34.0441C42.4472 38.4163 44.231 39.9557 47.1221 41.8647C54.5651 46.7603 63.1461 49.8855 72.1577 50.9786C74.3722 51.2403 80.7387 51.3788 83.8759 51.2249L85.6905 51.1325L83.8297 48.7463C81.2154 45.3902 80.3696 43.8353 79.2317 40.433C77.0326 33.8747 77.171 26.6237 79.6161 19.2649C81.2923 14.2307 83.4145 10.228 87.4282 4.57803C88.3509 3.26945 89.1352 2.11483 89.1659 2.02245C89.2428 1.83771 83.9681 0.729279 81.0001 0.313614C79.0317 0.0211036 71.0044 -0.102049 68.9283 0.0980851ZM78.7242 6.07134L79.2163 6.17911L78.7396 6.94886C77.1249 9.53522 75.0181 14.1229 73.9262 17.4175C72.4192 22.0052 71.7886 25.8539 71.7886 30.6572C71.7886 34.1672 71.9578 35.9069 72.6344 38.9705C72.8805 40.1251 74.1107 43.9738 74.526 44.9283C74.6951 45.2824 74.3722 45.2824 71.6964 44.8975C65.053 43.9585 58.748 41.8031 53.1504 38.5856C48.9675 36.184 47.4605 34.9678 42.0935 29.6565C39.5561 27.1471 37.1571 24.8379 36.7573 24.5146C36.3421 24.1913 36.0191 23.8372 36.0191 23.7294C36.0191 23.4985 40.1405 19.4496 41.8628 18.0179C50.3515 10.9054 59.8091 6.90267 70.3892 5.94818C72.0501 5.80963 77.9245 5.88661 78.7242 6.07134ZM61.0393 63.741C64.0996 64.4492 67.9749 64.988 70.8506 65.1112L71.7733 65.142L70.6507 65.727C67.6519 67.2819 63.8843 68.5135 60.5472 69.0523C57.9483 69.4526 57.4101 69.4988 57.487 69.2986C57.5178 69.2217 57.7946 67.8053 58.1021 66.1734C58.6404 63.3408 58.6865 63.1868 58.9941 63.2638C59.1632 63.31 60.1013 63.5255 61.0393 63.741Z" fill="#FCFCFD"/>
<rect x="96.7031" y="28.0026" width="15.0524" height="5.51495" transform="rotate(45 96.7031 28.0026)" fill="white"/>
<rect width="15.231" height="5.51495" transform="matrix(-0.707107 0.707107 0.707107 0.707107 103.834 27.8762)" fill="white"/>
</svg>
