<svg width="184" height="62" viewBox="0 0 184 62" fill="none" xmlns="http://www.w3.org/2000/svg">
<path d="M164.514 60.9429C164.514 60.6887 165.163 60.3216 166.293 60.011C167.253 59.7286 168.58 59.2485 169.258 58.9661C170.585 58.4295 170.727 57.9212 170.077 56.0291C169.851 55.4078 169.117 50.8328 168.439 45.8625L167.196 36.7973L163.949 36.5996C161.181 36.4584 156.465 36.7126 156.211 37.0232C155.731 37.6728 154.375 42.4172 153.923 45.0435C153.867 45.3542 153.726 46.0602 153.641 46.625C153.415 47.8393 153.754 48.2347 156.55 50.0703C158.329 51.2564 158.866 52.1036 157.679 51.8212C157.312 51.7648 155.223 51.4259 153.02 51.1152C150.139 50.6634 148.755 50.5787 148.078 50.7763C147.569 50.9175 143.22 52.3296 138.419 53.911C133.59 55.4643 129.552 56.7633 129.411 56.7633C129.241 56.7633 129.354 56.5092 129.637 56.1985C129.919 55.8879 130.286 55.6337 130.456 55.6337C130.625 55.6337 132.065 54.9842 133.647 54.2217C135.793 53.1768 136.584 52.6402 136.697 52.1601C136.782 51.8212 136.697 44.8176 136.527 36.5714C136.33 28.3534 136.16 18.3281 136.16 14.3462C136.16 10.336 136.076 7.06011 135.963 7.06011C135.878 7.06011 135.228 7.31428 134.522 7.62492C133.477 8.07677 133.082 8.13325 132.207 7.87909C131.614 7.70964 131.02 7.6814 130.908 7.82261C130.427 8.30269 122.718 39.4802 122.718 40.8639C122.718 42.8408 123.367 44.7611 124.299 45.5801C125.514 46.6532 129.128 49.1384 129.467 49.1384C129.637 49.1384 129.778 49.3926 129.778 49.675C129.778 50.1551 129.383 50.0421 126.191 48.7148C124.186 47.8958 120.261 46.2861 117.437 45.1565C114.585 43.9986 112.269 42.982 112.269 42.8973C112.269 42.4454 113.201 42.5019 116.025 43.1232C118.199 43.6315 119.188 43.7445 119.442 43.5185C120.656 42.5019 121.334 39.9885 124.553 24.1456C126.502 14.4874 127.801 7.48372 127.801 6.49531V4.82912L125.401 3.67126C124.073 3.04997 122.492 2.3722 121.871 2.20276C120.741 1.83563 120.317 1.12962 121.221 1.12962C121.475 1.12962 124.497 1.89211 127.914 2.85229C135.172 4.85736 133.703 4.94208 142.288 2.00507C145.508 0.903695 148.191 0 148.275 0C148.36 0 148.417 0.169443 148.417 0.367126C148.388 0.536569 147.795 0.988416 147.033 1.3273C144.717 2.42868 141.611 4.77264 141.215 5.73281C140.876 6.52355 141.102 9.09343 142.938 26.546C144.068 37.5033 145.028 46.4838 145.028 46.512C145.028 46.5403 145.423 47.0204 145.903 47.5852C146.863 48.6583 147.485 48.7995 149.292 48.2629C150.168 47.9805 150.45 47.7264 150.902 46.625C151.89 44.281 154.121 37.2492 153.952 37.0515C153.839 36.9668 153.217 37.0232 152.568 37.1927C151.184 37.5598 151.099 37.5316 151.523 36.7408C151.749 36.289 152.088 36.1478 153.076 36.1478H154.319L154.771 34.6793C154.997 33.8603 156.973 26.9696 159.148 19.3447C163.073 5.53513 163.073 5.50689 164.147 4.60319C164.74 4.09487 165.333 3.72774 165.502 3.78422C165.869 3.86894 165.191 1.12962 172.139 30.3585C172.816 33.2108 176.12 46.9639 177.25 51.7648C178.464 56.7351 178.719 57.0175 182.531 57.4693C183.491 57.6105 184 57.8082 184 58.0624C184 58.5707 184.141 58.5425 174.539 59.8698C170.049 60.5193 165.926 61.0841 165.446 61.1971C164.74 61.31 164.514 61.2536 164.514 60.9429ZM163.808 35.7242C166.688 35.3853 167.055 35.2723 167.055 34.8205C167.055 34.4251 166.716 34.3969 164.175 34.5663C157.199 35.0464 156.748 35.1029 156.493 35.7524C156.324 36.176 156.606 36.2043 159.346 36.0631C161.04 35.9501 163.045 35.8089 163.808 35.7242ZM166.49 33.239C166.49 33.0413 165.672 28.2969 164.655 22.7053C163.638 17.142 162.819 12.454 162.791 12.2846C162.791 12.1434 162.424 13.3295 161.972 14.9674C160.786 19.4859 157.171 33.352 157.171 33.4932C157.171 33.5497 159.261 33.6061 161.831 33.6061C165.474 33.6061 166.49 33.5214 166.49 33.239Z" fill="#FCFCFD"/>
<path d="M96.3127 49.7879C95.1549 49.6467 79.2555 46.9074 78.4648 46.7379C77.9 46.5967 77.8717 46.512 78.1541 45.8625L78.493 45.1282L81.7689 45.3259C86.8804 45.693 86.6263 45.7213 86.9651 44.7611C87.1628 44.1963 87.2475 38.8871 87.2193 28.2122C87.1628 13.6966 87.1346 12.3128 86.598 9.7147C85.9767 6.66473 85.5814 6.09992 83.8869 5.76103C82.9268 5.59159 81.0346 3.95364 81.7971 3.95364C82.5596 3.95364 109.219 7.03185 109.303 7.11658C109.529 7.3425 110.264 16.5206 110.066 16.7183C109.953 16.8313 109.303 17.0007 108.626 17.1137L107.355 17.3114L108.033 16.3794C109.021 14.9957 109.162 12.5105 108.315 11.155C107.383 9.65822 106.79 9.40405 103.514 9.00869C100.464 8.6698 92.8674 8.83924 92.4438 9.26285C92.3026 9.40405 92.1049 10.5054 91.9355 11.748C91.6248 14.4309 90.9753 25.1057 91.1165 25.2469C91.173 25.3034 93.5169 25.5011 96.3127 25.6423C102.695 26.0377 105.237 26.7155 107.411 28.664C109.501 30.5279 110.151 32.2223 110.122 35.583C110.094 37.814 109.981 38.5764 109.36 40.0449C107.92 43.5185 103.203 49.1666 101.311 49.7032C100.295 49.9856 98.0354 50.0138 96.3127 49.7879ZM97.4141 47.1615C98.7696 45.6366 101.763 39.4801 102.074 37.5598C102.384 35.7242 101.961 31.4881 101.424 30.6409C100.831 29.7372 96.2845 27.1673 94.6183 26.8002C93.7993 26.6307 92.6697 26.546 92.1331 26.659L91.1447 26.8567L90.9753 30.302C90.6646 36.882 90.5517 46.7662 90.7776 47.1333C91.0318 47.5287 93.7428 48.2064 95.3526 48.2629C96.228 48.2912 96.5387 48.1217 97.4141 47.1615Z" fill="#FCFCFD"/>
<path d="M52.1166 47.4439C51.0999 47.331 49.9985 47.1615 49.6879 47.0486C49.1513 46.8791 46.1861 43.7727 46.1861 43.4056C46.1861 43.1796 53.9522 47.218 54.0369 47.4722C54.0934 47.6134 54.0934 47.6981 54.0369 47.6981C54.0087 47.6699 53.1332 47.5569 52.1166 47.4439Z" fill="#FCFCFD"/>
<path d="M17.9458 45.5519C11.7046 43.8857 10.6597 43.688 7.3556 43.5185L3.68434 43.3491L4.81396 42.8125C5.63293 42.4454 6.84727 42.2477 9.10651 42.1348C11.3375 42.05 12.2977 41.9088 12.4106 41.6547C13.0037 40.1015 10.4903 10.223 9.69956 9.43231C9.38891 9.12167 8.85234 9.14991 6.64959 9.48879C3.57138 9.94064 1.2839 9.7712 0.351964 9.00871C-0.269327 8.50038 -0.241086 8.50038 1.87695 8.47214C3.62786 8.47214 5.43525 8.10501 11.6199 6.46707C18.8212 4.54671 19.386 4.43375 22.1818 4.46199C25.4577 4.49023 30.541 5.36569 31.9248 6.15642C33.3651 7.00363 33.8451 8.38742 33.8451 11.8328C33.8451 15.3628 33.591 15.9276 30.7669 18.7517L29.1007 20.3896L27.604 20.2484C24.6388 19.9378 24.4128 20.672 27.3498 21.1521C28.4795 21.3215 29.8915 21.7734 30.5128 22.1123C31.1341 22.4794 32.4614 22.9877 33.4498 23.2984C35.709 23.9761 37.6576 25.6423 38.5895 27.7321C39.2108 29.1159 39.2673 29.5678 39.2391 33.7473C39.2108 37.4186 39.0979 38.6894 38.5895 40.4968C37.8835 43.0949 36.8951 45.3542 36.0761 46.2296C35.2289 47.1051 33.1109 47.444 28.7336 47.4157C24.8929 47.4157 24.8082 47.3875 17.9458 45.5519ZM26.8698 45.6083C28.2253 45.213 29.6938 43.9986 30.2868 42.7843C31.1058 41.1463 30.9081 37.108 29.6938 30.4997C28.8466 25.953 27.9994 23.7785 26.785 23.0725C25.9378 22.5924 25.4577 22.5641 21.0805 22.7618L16.3078 22.9595L16.1384 31.0363C16.0254 35.47 15.8842 39.7626 15.7995 40.5815L15.6583 42.05L17.2115 43.0385C19.4425 44.4787 20.8545 45.1565 22.549 45.6083C24.4693 46.1167 25.1753 46.1167 26.8698 45.6083ZM23.3679 20.3049C23.961 19.9942 24.6105 19.4859 24.8364 19.1188C25.5989 17.9609 26.1637 15.1369 26.3332 11.6633C26.5309 7.85085 26.2767 6.77771 25.1188 6.24114C24.1022 5.78929 20.0638 5.84578 19.1319 6.32586C17.5504 7.14484 17.4657 7.42724 17.268 12.4258C17.155 14.9957 17.0138 18.0174 16.9291 19.147L16.7597 21.2086L19.5272 21.0109C21.3629 20.8979 22.6902 20.6438 23.3679 20.3049Z" fill="#FCFCFD"/>
<path d="M57.5664 46.4555C54.2905 45.5518 49.9415 43.349 47.6822 41.4004C44.717 38.8306 43.6156 33.1825 44.6323 26.0094C45.5359 19.8812 47.0892 14.9391 48.6424 13.1317C49.2637 12.4257 53.9234 8.50031 55.1377 7.68134C58.1594 5.59154 61.2941 4.71609 63.6098 5.33738C65.3607 5.81747 68.8061 8.24615 70.7547 10.3924C74.8213 14.8544 76.318 18.1021 77.1088 24.1738C78.4078 34.1709 76.7416 38.1528 68.8343 43.7726C65.3607 46.2578 63.8358 46.8509 61.1529 46.8509C59.9951 46.8509 58.3854 46.6532 57.5664 46.4555ZM64.9089 44.8175C67.1117 43.8856 69.0885 40.2143 70.0204 35.3287C70.6135 32.2788 70.5852 30.3019 69.9357 25.84C69.6251 23.8349 69.3144 21.152 69.2014 19.9095C68.4672 11.2114 65.3043 6.3258 60.7011 6.86236C57.3405 7.22949 50.2803 12.5105 48.8401 15.7016C48.5012 16.4641 48.36 17.5373 48.36 19.2034C48.36 21.2932 48.5577 22.3099 49.9415 27.0261C52.8785 37.0514 55.0247 42.1629 57.0298 44.055C58.1594 45.0999 63.0733 45.58 64.9089 44.8175Z" fill="#FCFCFD"/>
<path d="M64.7971 14.0637C63.498 11.5786 62.2272 8.52861 62.3402 8.16148C62.3967 8.02028 63.1874 8.66981 64.1476 9.54527L65.8702 11.155L66.0679 13.6684C66.1809 15.0239 66.2091 16.21 66.1526 16.2665C66.0962 16.3512 65.4749 15.3346 64.7971 14.0637Z" fill="#FCFCFD"/>
</svg>
