<svg width="40" height="40" viewBox="0 0 40 40" fill="none" xmlns="http://www.w3.org/2000/svg">
<path d="M20.0002 11.9885C15.5666 11.9885 11.9885 15.5667 11.9885 20.0002C11.9885 24.4338 15.5666 28.012 20.0002 28.012C24.4338 28.012 28.0119 24.4338 28.0119 20.0002C28.0119 15.5667 24.4338 11.9885 20.0002 11.9885ZM20.0002 25.2073C17.133 25.2073 14.7932 22.8674 14.7932 20.0002C14.7932 17.1331 17.133 14.7932 20.0002 14.7932C22.8674 14.7932 25.2072 17.1331 25.2072 20.0002C25.2072 22.8674 22.8674 25.2073 20.0002 25.2073ZM28.34 9.79321C27.3049 9.79321 26.4689 10.6292 26.4689 11.6643C26.4689 12.6995 27.3049 13.5354 28.34 13.5354C29.3752 13.5354 30.2111 12.7034 30.2111 11.6643C30.2114 11.4185 30.1632 11.1751 30.0693 10.9479C29.9754 10.7208 29.8376 10.5144 29.6638 10.3406C29.49 10.1667 29.2836 10.0289 29.0564 9.93502C28.8293 9.84109 28.5858 9.79291 28.34 9.79321ZM35.6174 20.0002C35.6174 17.844 35.6369 15.7073 35.5158 13.5549C35.3947 11.0549 34.8244 8.83618 32.9963 7.00806C31.1643 5.17603 28.9494 4.60962 26.4494 4.48853C24.2932 4.36743 22.1564 4.38697 20.0041 4.38697C17.8478 4.38697 15.7111 4.36743 13.5588 4.48853C11.0588 4.60962 8.84003 5.17993 7.0119 7.00806C5.17987 8.84009 4.61347 11.0549 4.49237 13.5549C4.37128 15.7112 4.39081 17.8479 4.39081 20.0002C4.39081 22.1526 4.37128 24.2932 4.49237 26.4456C4.61347 28.9456 5.18378 31.1643 7.0119 32.9924C8.84394 34.8245 11.0588 35.3909 13.5588 35.512C15.715 35.6331 17.8517 35.6135 20.0041 35.6135C22.1603 35.6135 24.2971 35.6331 26.4494 35.512C28.9494 35.3909 31.1682 34.8206 32.9963 32.9924C34.8283 31.1604 35.3947 28.9456 35.5158 26.4456C35.6408 24.2932 35.6174 22.1565 35.6174 20.0002ZM32.1799 29.2112C31.8947 29.9221 31.551 30.4534 31.0002 31.0002C30.4494 31.551 29.9221 31.8948 29.2111 32.1799C27.1564 32.9963 22.2775 32.8127 20.0002 32.8127C17.7228 32.8127 12.84 32.9963 10.7853 32.1838C10.0744 31.8987 9.54315 31.5549 8.99628 31.0042C8.4455 30.4534 8.10175 29.926 7.81659 29.2151C7.00409 27.1565 7.18769 22.2776 7.18769 20.0002C7.18769 17.7229 7.00409 12.8401 7.81659 10.7854C8.10175 10.0745 8.4455 9.54322 8.99628 8.99634C9.54706 8.44947 10.0744 8.10181 10.7853 7.81665C12.84 7.00415 17.7228 7.18775 20.0002 7.18775C22.2775 7.18775 27.1603 7.00415 29.215 7.81665C29.926 8.10181 30.4572 8.44556 31.0041 8.99634C31.5549 9.54712 31.8986 10.0745 32.1838 10.7854C32.9963 12.8401 32.8127 17.7229 32.8127 20.0002C32.8127 22.2776 32.9963 27.1565 32.1799 29.2112Z" fill="#FCD51E"/>
</svg>
