<svg width="44" height="44" viewBox="0 0 44 44" fill="none" xmlns="http://www.w3.org/2000/svg">
<path d="M29.8382 39.924H14.1618C13.7133 39.924 13.2967 39.6921 13.0611 39.3107L4.54662 25.5371C1.80739 25.3362 0 23.3782 0 20.5372C0 17.5365 2.01633 15.5198 5.01741 15.5198H38.9826C41.9837 15.5198 44 17.5364 44 20.5372C44 23.3782 42.1926 25.3362 39.4534 25.5371L30.9389 39.3107C30.7033 39.6922 30.2867 39.924 29.8382 39.924ZM14.8834 37.3358H29.1166L37.6207 23.579C37.8563 23.1976 38.2729 22.9657 38.7214 22.9657H38.9826C40.549 22.9657 41.4118 22.103 41.4118 20.5372C41.4118 18.9707 40.549 18.108 38.9826 18.108H5.01741C3.45095 18.108 2.58821 18.9707 2.58821 20.5372C2.58821 22.103 3.45095 22.9657 5.01741 22.9657C5.06126 22.9657 5.10434 22.9677 5.14713 22.9725C5.62196 22.9198 6.11029 23.1436 6.37927 23.579L14.8834 37.3358Z" fill="#FCD51E"/>
<path d="M22.4864 33.6026C21.9145 33.6026 21.4512 33.1388 21.4512 32.5674V23.9453C21.4512 23.3737 21.9145 22.91 22.4864 22.91C23.0583 22.91 23.5217 23.3738 23.5217 23.9453V32.5674C23.5218 33.1389 23.0583 33.6026 22.4864 33.6026Z" fill="#FCD51E"/>
<path d="M17.1866 33.9172C16.8408 33.9172 16.5031 33.744 16.307 33.4291L10.9283 24.7949C10.6257 24.3096 10.7743 23.6713 11.2596 23.3687C11.7442 23.0674 12.3835 23.215 12.6854 23.7003L18.0641 32.3345C18.3667 32.8199 18.2181 33.4581 17.7329 33.7607C17.5627 33.8666 17.3736 33.9172 17.1866 33.9172Z" fill="#FCD51E"/>
<path d="M26.8101 33.8984C26.6268 33.8984 26.4411 33.8484 26.2738 33.744C25.7977 33.4474 25.652 32.8212 25.9486 32.3447L31.3273 23.7105C31.6242 23.234 32.2501 23.0878 32.7269 23.3857C33.2031 23.6822 33.3487 24.3084 33.0522 24.7849L27.6735 33.4191C27.481 33.7285 27.1494 33.8984 26.8101 33.8984Z" fill="#FCD51E"/>
<path d="M18.5002 17.7691C17.7854 17.7691 17.2061 17.1894 17.2061 16.475V9.43349C17.2061 6.37921 19.364 4.07568 22.2255 4.07568H22.7465C25.7017 4.07568 27.7659 6.13991 27.7659 9.09512V16.1366C27.7659 16.851 27.1866 17.4307 26.4718 17.4307C25.757 17.4307 25.1777 16.851 25.1777 16.1366V9.09512C25.1777 7.57251 24.2688 6.6639 22.7465 6.6639H22.2255C20.5549 6.6639 19.7943 8.09958 19.7943 9.43349V16.4749C19.7943 17.1895 19.215 17.7691 18.5002 17.7691Z" fill="#FCD51E"/>
</svg>
