<svg width="24" height="24" viewBox="0 0 24 24" fill="none" xmlns="http://www.w3.org/2000/svg">
<path d="M20.3089 23.9999H3.99006C3.60016 23.9999 3.28418 23.6839 3.28418 23.294V5.65412C3.28418 5.26423 3.60016 4.94824 3.99006 4.94824C4.37995 4.94824 4.69593 5.26423 4.69593 5.65412V22.5882H19.6031V5.65412C19.6031 5.26423 19.9193 4.94824 20.309 4.94824C20.6987 4.94824 21.0149 5.26423 21.0149 5.65412V23.294C21.0148 23.6839 20.6987 23.9999 20.3089 23.9999Z" fill="#151511"/>
<path d="M22.854 5.88465H1.14533C0.755436 5.88465 0.439453 5.56867 0.439453 5.17878C0.439453 4.78888 0.755436 4.4729 1.14533 4.4729H22.854C23.2436 4.4729 23.5598 4.78888 23.5598 5.17878C23.5599 5.56867 23.2437 5.88465 22.854 5.88465Z" fill="#151511"/>
<path d="M14.46 5.64817C14.0703 5.64817 13.7541 5.33218 13.7541 4.94229V2.93952C13.7541 2.09707 13.0688 1.41175 12.2265 1.41175H12.0725C11.23 1.41175 10.5446 2.09702 10.5446 2.93952V4.94229C10.5446 5.33218 10.2286 5.64817 9.83869 5.64817C9.4488 5.64817 9.13281 5.33218 9.13281 4.94229V2.93952C9.13271 1.31876 10.4515 0 12.0724 0H12.2265C13.8471 0 15.1658 1.31876 15.1658 2.93952V4.94229C15.1658 5.33218 14.8496 5.64817 14.46 5.64817Z" fill="#151511"/>
<path d="M8.10667 19.2023C7.79474 19.2023 7.54199 18.9496 7.54199 18.6376V9.83507C7.54199 9.52313 7.79474 9.27039 8.10667 9.27039C8.41861 9.27039 8.67135 9.52313 8.67135 9.83507V18.6376C8.67135 18.9496 8.41861 19.2023 8.10667 19.2023Z" fill="#151511"/>
<path d="M16.2668 19.2023C15.9551 19.2023 15.7021 18.9496 15.7021 18.6376V9.83507C15.7021 9.52313 15.9551 9.27039 16.2668 9.27039C16.5786 9.27039 16.8315 9.52313 16.8315 9.83507V18.6376C16.8316 18.9496 16.5786 19.2023 16.2668 19.2023Z" fill="#151511"/>
<path d="M12.1487 19.2023C11.8369 19.2023 11.584 18.9496 11.584 18.6376V9.83507C11.584 9.52313 11.8369 9.27039 12.1487 9.27039C12.4604 9.27039 12.7133 9.52313 12.7133 9.83507V18.6376C12.7133 18.9496 12.4604 19.2023 12.1487 19.2023Z" fill="#151511"/>
</svg>
