<svg width="44" height="44" viewBox="0 0 44 44" fill="none" xmlns="http://www.w3.org/2000/svg">
<path d="M15.7585 27.1071H14.4798C10.7791 27.1071 7.76855 24.0966 7.76855 20.3959V13.0879C7.76855 9.38786 10.7791 6.37732 14.4798 6.37732H15.7585C19.4589 6.37732 22.4695 9.38786 22.4695 13.0879V20.3959C22.4694 24.0966 19.4589 27.1071 15.7585 27.1071ZM14.4797 8.47253C11.9343 8.47253 9.86367 10.5432 9.86367 13.0879V20.3959C9.86367 22.9413 11.9343 25.0119 14.4797 25.0119H15.7584C18.3034 25.0119 20.3741 22.9413 20.3741 20.3959V13.0879C20.3741 10.5432 18.3035 8.47253 15.7584 8.47253H14.4797Z" fill="#FCD51E"/>
<path d="M15.1188 37.6225H1.04846C0.469781 37.6225 0.000905733 37.1532 0.000905733 36.5749V34.0691C-0.0908605 31.3335 6.81072 29.2397 11.4857 28.1395V26.1978C11.4857 25.6194 11.9546 25.1503 12.5333 25.1503C13.112 25.1503 13.5808 25.6195 13.5808 26.1978V28.9737C13.5808 29.4642 13.2405 29.8891 12.7621 29.9961C7.41729 31.1937 2.42993 33.1067 2.08959 34.091L2.09329 35.5274H15.1188C15.6975 35.5274 16.1664 35.9966 16.1664 36.5749C16.1664 37.1532 15.6975 37.6225 15.1188 37.6225Z" fill="#FCD51E"/>
<path d="M29.1889 37.6226H15.1188C14.5402 37.6226 14.0713 37.1533 14.0713 36.575C14.0713 35.9967 14.5402 35.5275 15.1188 35.5275H28.1412V34.0693C27.807 33.1062 22.82 31.1924 17.4756 29.9961C16.9109 29.87 16.5559 29.3093 16.6821 28.7446C16.8083 28.1805 17.3678 27.8272 17.9333 27.9513C22.57 28.9894 30.3337 31.1692 30.2358 34.104L30.2364 36.575C30.2364 37.1534 29.7676 37.6226 29.1889 37.6226Z" fill="#FCD51E"/>
<path d="M42.9519 11.1071H29.3317C28.7531 11.1071 28.2842 10.6378 28.2842 10.0595C28.2842 9.48113 28.7531 9.01196 29.3317 9.01196H42.9519C43.5306 9.01196 43.9995 9.48123 43.9995 10.0595C43.9995 10.6378 43.5306 11.1071 42.9519 11.1071Z" fill="#FCD51E"/>
<path d="M42.9519 17.7898H29.3317C28.7531 17.7898 28.2842 17.3206 28.2842 16.7423C28.2842 16.164 28.7531 15.6947 29.3317 15.6947H42.9519C43.5306 15.6947 43.9995 16.164 43.9995 16.7423C43.9995 17.3206 43.5306 17.7898 42.9519 17.7898Z" fill="#FCD51E"/>
<path d="M42.9519 24.4723H29.3317C28.7531 24.4723 28.2842 24.003 28.2842 23.4247C28.2842 22.8465 28.7531 22.3772 29.3317 22.3772H42.9519C43.5306 22.3772 43.9995 22.8465 43.9995 23.4247C43.9995 24.003 43.5306 24.4723 42.9519 24.4723Z" fill="#FCD51E"/>
</svg>
