<svg width="40" height="40" viewBox="0 0 40 40" fill="none" xmlns="http://www.w3.org/2000/svg">
<path d="M35.9647 11.4249C36.198 10.6499 35.9647 10.0815 34.8613 10.0815H31.2063C30.2763 10.0815 29.8513 10.5732 29.618 11.1132C29.618 11.1132 27.7597 15.6449 25.1263 18.5832C24.2763 19.4382 23.888 19.7082 23.4247 19.7082C23.193 19.7082 22.8563 19.4382 22.8563 18.6632V11.4249C22.8563 10.4949 22.588 10.0815 21.813 10.0815H16.0697C15.4897 10.0815 15.1397 10.5115 15.1397 10.9215C15.1397 11.8015 16.4563 12.0049 16.5913 14.4849V19.8649C16.5913 21.0432 16.3797 21.2582 15.913 21.2582C14.6747 21.2582 11.6613 16.7099 9.87301 11.5032C9.52467 10.4915 9.17301 10.0832 8.23967 10.0832H4.58634C3.54134 10.0832 3.33301 10.5749 3.33301 11.1149C3.33301 12.0849 4.57134 16.8849 9.10134 23.2332C12.1213 27.5682 16.373 29.9182 20.2463 29.9182C22.568 29.9182 22.8547 29.3965 22.8547 28.4965V25.2199C22.8547 24.1765 23.0763 23.9665 23.8113 23.9665C24.3513 23.9665 25.2813 24.2399 27.4497 26.3282C29.9263 28.8049 30.3363 29.9165 31.728 29.9165H35.3813C36.4247 29.9165 36.9463 29.3949 36.6463 28.3649C36.318 27.3399 35.1347 25.8482 33.5647 24.0832C32.7113 23.0765 31.4363 21.9932 31.048 21.4515C30.5063 20.7532 30.663 20.4449 31.048 19.8249C31.0497 19.8265 35.5013 13.5565 35.9647 11.4249Z" fill="#FCD51E"/>
</svg>
