<svg width="40" height="40" viewBox="0 0 40 40" fill="none" xmlns="http://www.w3.org/2000/svg">
<path d="M37.5 19.8905C37.5 19.8046 37.5 19.7069 37.4961 19.5936C37.4922 19.2772 37.4844 18.9218 37.4766 18.5428C37.4453 17.453 37.3906 16.3671 37.3047 15.3436C37.1875 13.9335 37.0156 12.7577 36.7812 11.8749C36.5339 10.9536 36.0491 10.1133 35.3753 9.43815C34.7014 8.76294 33.8622 8.27642 32.9414 8.02722C31.8359 7.73035 29.6719 7.54675 26.625 7.43347C25.1758 7.37878 23.625 7.34363 22.0742 7.3241C21.5312 7.31628 21.0273 7.31238 20.5742 7.30847H19.4258C18.9727 7.31238 18.4688 7.31628 17.9258 7.3241C16.375 7.34363 14.8242 7.37878 13.375 7.43347C10.3281 7.55066 8.16016 7.73425 7.05859 8.02722C6.1375 8.27581 5.29793 8.76213 4.624 9.43742C3.95007 10.1127 3.46547 10.9533 3.21875 11.8749C2.98047 12.7577 2.8125 13.9335 2.69531 15.3436C2.60938 16.3671 2.55469 17.453 2.52344 18.5428C2.51172 18.9218 2.50781 19.2772 2.50391 19.5936C2.50391 19.7069 2.5 19.8046 2.5 19.8905V20.1093C2.5 20.1952 2.5 20.2928 2.50391 20.4061C2.50781 20.7225 2.51562 21.078 2.52344 21.4569C2.55469 22.5468 2.60938 23.6327 2.69531 24.6561C2.8125 26.0663 2.98438 27.2421 3.21875 28.1249C3.71875 29.996 5.1875 31.4725 7.05859 31.9725C8.16016 32.2694 10.3281 32.453 13.375 32.5663C14.8242 32.621 16.375 32.6561 17.9258 32.6757C18.4688 32.6835 18.9727 32.6874 19.4258 32.6913H20.5742C21.0273 32.6874 21.5312 32.6835 22.0742 32.6757C23.625 32.6561 25.1758 32.621 26.625 32.5663C29.6719 32.4491 31.8398 32.2655 32.9414 31.9725C34.8125 31.4725 36.2812 29.9999 36.7812 28.1249C37.0195 27.2421 37.1875 26.0663 37.3047 24.6561C37.3906 23.6327 37.4453 22.5468 37.4766 21.4569C37.4883 21.078 37.4922 20.7225 37.4961 20.4061C37.4961 20.2928 37.5 20.1952 37.5 20.1093V19.8905ZM34.6875 20.0936C34.6875 20.1757 34.6875 20.2655 34.6836 20.371C34.6797 20.6757 34.6719 21.0116 34.6641 21.3749C34.6367 22.4139 34.582 23.453 34.5 24.4178C34.3945 25.6757 34.2461 26.7069 34.0625 27.3983C33.8203 28.3007 33.1094 29.0155 32.2109 29.2538C31.3906 29.4725 29.3242 29.6483 26.5156 29.7538C25.0938 29.8085 23.5625 29.8436 22.0352 29.8632C21.5 29.871 21.0039 29.8749 20.5586 29.8749H19.4414L17.9648 29.8632C16.4375 29.8436 14.9102 29.8085 13.4844 29.7538C10.6758 29.6444 8.60547 29.4725 7.78906 29.2538C6.89062 29.0116 6.17969 28.3007 5.9375 27.3983C5.75391 26.7069 5.60547 25.6757 5.5 24.4178C5.41797 23.453 5.36719 22.4139 5.33594 21.3749C5.32422 21.0116 5.32031 20.6718 5.31641 20.371C5.31641 20.2655 5.3125 20.1718 5.3125 20.0936V19.9061C5.3125 19.8241 5.3125 19.7343 5.31641 19.6288C5.32031 19.3241 5.32813 18.9882 5.33594 18.6249C5.36328 17.5858 5.41797 16.5468 5.5 15.5819C5.60547 14.3241 5.75391 13.2928 5.9375 12.6014C6.17969 11.6991 6.89062 10.9843 7.78906 10.746C8.60938 10.5272 10.6758 10.3514 13.4844 10.246C14.9063 10.1913 16.4375 10.1561 17.9648 10.1366C18.5 10.1288 18.9961 10.1249 19.4414 10.1249H20.5586L22.0352 10.1366C23.5625 10.1561 25.0898 10.1913 26.5156 10.246C29.3242 10.3553 31.3945 10.5272 32.2109 10.746C33.1094 10.9882 33.8203 11.6991 34.0625 12.6014C34.2461 13.2928 34.3945 14.3241 34.5 15.5819C34.582 16.5468 34.6328 17.5858 34.6641 18.6249C34.6758 18.9882 34.6797 19.328 34.6836 19.6288C34.6836 19.7343 34.6875 19.828 34.6875 19.9061V20.0936ZM16.5234 25.2343L25.5859 19.9608L16.5234 14.7655V25.2343Z" fill="#FCD51E"/>
</svg>
